<svg xmlns="http://www.w3.org/2000/svg" viewBox="0 0 192.64 192.9"><defs><style>.cls-1{fill:#FFFFFF;}</style></defs><g id="katman_2" data-name="katman 2"><g id="katman_1-2" data-name="katman 1"><path class="cls-1" d="M191.81,94.22a4.86,4.86,0,0,0-.92-.67c-.65-.34-1-.37-5.14-.4-1.57,0-2.76,0-3.47-.07.09-.15.21-.33.34-.52a5.5,5.5,0,0,0,.95-2.06A3,3,0,0,0,182.8,88a3.15,3.15,0,0,0-2.37-1.1,2.74,2.74,0,0,0-.49,0c-1.2.21-1.87,1-3.72,3.72-.86,1.26-1.23,1.84-1.9,2.12s-1.85.31-4.15.31H170c-1.66,0-3,0-3.75,0a6.87,6.87,0,0,0,.43-.83c.74-1.35,2.37-4.3,6.43-11.74.83-1.54,1.81-3.35,2-3.75a3.13,3.13,0,0,0-.25-3,3.06,3.06,0,0,0-2.58-1.41c-1.72,0-2.37.73-3.84,3.44-4.06,7.38-8.7,15.86-9.47,17.21-.4,0-1.42,0-3.23,0h-1.66c-1.78,0-3.47,0-3.66-.33s.74-1.91,1.81-3.75c1.42-2.37,3-5,3.11-5.41a3.28,3.28,0,0,0-.09-3A3.08,3.08,0,0,0,152.83,79h-.28A3.3,3.3,0,0,0,150,80.33c-.25.34-2.24,3.72-4.06,6.79s-2.67,4.55-4,5.26-3.17.7-6.89.7c-3.2,0-5.44,0-6.52,0,1.51-1.87,5.78-7.28,6.55-8.33,1.32-1.75,1.69-2.61,1.6-3.69A3.07,3.07,0,0,0,135,78.48c-.52-.24-5-1.23-7.35-1.69-2.67-.55-4.86-1-5.93-1.26.74-.8,2.3-2.4,4.3-4.43,3.32-3.32,4.34-4.33,6.86-4.33a42.1,42.1,0,0,1,5.16.55c3.69.53,7.81,1.08,8.33,1.08h.06A3.13,3.13,0,0,0,149,67.2a3.24,3.24,0,0,0-1.14-4.8c-.49-.24-6-1-6.24-1-2.22-.31-4-.58-5-.74,1.44-1.6,5.62-5.78,6.48-6.48.89.21,5,1.32,10.58,2.82,4.86,1.33,10.79,2.92,11.37,2.92a3,3,0,0,0,2.74-1.69,2.87,2.87,0,0,0,0-2.89c-.59-1.23-1-1.35-11-4.08-4.09-1.11-7.16-2-8.48-2.37.49-.52,1.35-1.39,2.49-2.52,2.09-2.09,2.64-2.59,3.56-2.59a10.82,10.82,0,0,1,1.94.31,21.75,21.75,0,0,0,3.84.59,3.07,3.07,0,0,0,1.33-.28,3.1,3.1,0,0,0,1.69-2.8,3.07,3.07,0,0,0-1.66-2.76,9.62,9.62,0,0,0-1.91-.56l-.49-.09c.49-.52,1.32-1.38,2.49-2.55A41.31,41.31,0,0,0,165,31.85a3.51,3.51,0,0,0,0-2.89,3.14,3.14,0,0,0-2.4-1.6,2.86,2.86,0,0,0-.52,0c-1.17,0-1.78.55-4.8,3.57-1.35,1.32-2.09,2-2.52,2.39,0-.18-.09-.4-.12-.64-.34-1.69-.74-2.52-2.09-3.11a3.29,3.29,0,0,0-1.2-.24,3.12,3.12,0,0,0-3.1,2.76,17.19,17.19,0,0,0,.55,3.91c.31,1.5.43,2.18.15,2.83s-1.1,1.5-2.7,3.13-2.37,2.31-2.77,2.68c-.34-1.08-1-3.45-1.87-6.43-1.14-3.9-2.19-7.53-2.4-8.27s-.52-1.81-.71-2.37A4,4,0,0,0,136.63,25a3.89,3.89,0,0,0-1.42-.24A3.79,3.79,0,0,0,134,25a3.19,3.19,0,0,0-1.9,2.89c0,.62,1.35,5.32,1.94,7.32.49,1.75.95,3.26,1.35,4.64,3,10.18,3,10.18.67,12.33-.33.3-.7.67-1.13,1.07-1.32,1.33-2.46,2.43-3.08,3-.15-.5-.34-1.2-.58-2.16l-.22-.86c-2.3-8.85-2.3-8.85-3.53-9.46l-.09-.07a3.39,3.39,0,0,0-1.42-.33,3.08,3.08,0,0,0-3.1,3.07c0,.22,0,.8,1.87,8,.92,3.51,1.6,6.18,1.79,7-.56.59-2.46,2.52-5.14,5.17-2.3,2.3-3.93,3.9-4.67,4.55-.12-1-.37-3-.65-5.51-.7-6.21-.86-7.1-1.5-8.08a3.08,3.08,0,0,0-2.55-1.35,3.49,3.49,0,0,0-1.63.39c-.46.25-3.51,2.22-6.18,4-2.28,1.51-4,2.58-4.83,3.11-.06-2.71-.06-11.69,0-12.79.25-.28,1.42-1.26,6.27-4.92,7.1-5.35,7.23-5.44,7.23-7.1a3.59,3.59,0,0,0-.28-1.39,3.33,3.33,0,0,0-2.89-1.75,3,3,0,0,0-1.17.25c-.43.18-3.5,2.46-5.07,3.62-1.78,1.33-3.23,2.4-4,3,0-.93,0-2.65,0-4.28,0-2.58,0-3.75,1.08-4.95s3.5-2.61,8.24-5.31c3.84-2.19,9.71-5.57,10.11-5.91a3.45,3.45,0,0,0,1.17-2.27,3.14,3.14,0,0,0-3.17-3.2,2.69,2.69,0,0,0-.83.12c-.64.19-13.65,7.54-16.57,9.26,0-.62,0-1.75,0-3.51,0-2.12,0-3.19.31-3.87s.86-1,2.15-1.88a23.08,23.08,0,0,0,3.17-2.36,2.43,2.43,0,0,0,.52-1.66,2.82,2.82,0,0,0-1.41-2.86,3.35,3.35,0,0,0-1.63-.52A5,5,0,0,0,100,10.45a3.15,3.15,0,0,0-.33.22,32.44,32.44,0,0,1-.16-3.57c-.09-4.92-.09-5.32-1.1-6.27A3.23,3.23,0,0,0,96.23,0a3.12,3.12,0,0,0-1.41.34,3.08,3.08,0,0,0-1.48,1.5C93,2.43,93,3,93,6.92c0,1.5,0,2.73-.07,3.47l-.52-.34a5.7,5.7,0,0,0-2-1,1.75,1.75,0,0,0-.4,0,3.2,3.2,0,0,0-2.4,1.14,3,3,0,0,0-.7,2.52c.21,1.2,1,1.87,3.72,3.72,1.26.86,1.84,1.23,2.12,1.9S93,20.2,93,22.5c0,1.85,0,3.17,0,3.91L92.15,26c-1.33-.74-4.19-2.31-11.75-6.43-1.54-.83-3.35-1.81-3.75-2a3.07,3.07,0,0,0-1.26-.27,3.12,3.12,0,0,0-3.13,3.1c0,1.72.73,2.37,3.44,3.84,7.38,4.06,15.86,8.7,17.21,9.47,0,.59.07,2.34,0,4.89,0,2.06,0,3.66-.43,3.66-.55,0-1.84-.77-3.65-1.85-2.37-1.41-5-3-5.41-3.1A3.25,3.25,0,0,0,82,37a3.13,3.13,0,0,0-3.13,2.86,3.23,3.23,0,0,0,1.29,2.83c.33.24,3.72,2.24,6.79,4.06s4.55,2.67,5.26,4,.7,3.17.7,6.89c0,3.19,0,5.44,0,6.51-1.87-1.5-7.28-5.77-8.33-6.54-1.6-1.23-2.43-1.63-3.38-1.63h-.28a3.07,3.07,0,0,0-2.55,1.69c-.24.52-1.17,4.86-1.69,7.35-.55,2.67-1,4.85-1.26,5.93-.8-.74-2.4-2.31-4.42-4.3-2.43-2.43-3.63-3.63-4.09-5.08s-.19-3.29.33-6.94,1.08-7.81,1.08-8.34a3.1,3.1,0,0,0-.89-2.3A3,3,0,0,0,65.25,43a2.79,2.79,0,0,0-.86.12,3.21,3.21,0,0,0-2.06,1.66c-.25.49-1,6-1,6.24-.31,2.21-.58,4-.74,5-1.6-1.44-5.78-5.62-6.48-6.48.21-.9,1.32-5.05,2.82-10.58,1.08-4,2.93-10.76,2.93-11.37a3,3,0,0,0-1.7-2.74,3,3,0,0,0-1.44-.4,3.35,3.35,0,0,0-1.45.37c-1.22.58-1.35,1-4.08,11C50,40,49.17,43,48.77,44.36c-.52-.49-1.38-1.35-2.52-2.49C44.77,40.39,44,39.66,43.79,39s-.12-1.26.18-2.64c.65-3.17.77-4.25.31-5.17a3.1,3.1,0,0,0-2.8-1.69,3.07,3.07,0,0,0-2.76,1.66,9.62,9.62,0,0,0-.56,1.91c0,.18-.06.34-.09.49-.52-.49-1.38-1.32-2.55-2.49a41.31,41.31,0,0,0-3.75-3.44,3.27,3.27,0,0,0-1.45-.31,2.77,2.77,0,0,0-1.44.34,3.26,3.26,0,0,0-1.63,2.4c-.15,1.56.15,1.9,3.54,5.31,1.32,1.36,2,2.09,2.39,2.52-.18,0-.4.1-.64.13-1.69.34-2.52.73-3.11,2.09a3.11,3.11,0,0,0,.19,2.76,3,3,0,0,0,2.3,1.51h.22a25.86,25.86,0,0,0,3.69-.55,10.68,10.68,0,0,1,2-.31c1,0,1.56.49,3.93,2.86,1.54,1.54,2.31,2.37,2.68,2.77-1.08.33-3.45,1-6.43,1.87l-8.27,2.4c-.74.21-1.81.52-2.37.71A3.91,3.91,0,0,0,24.88,56a4.21,4.21,0,0,0-.09,2.61,3.18,3.18,0,0,0,2.89,1.91c.62,0,5.32-1.35,7.32-1.94,1.75-.49,3.26-1,4.64-1.35,5.35-1.57,8-2.37,9.53-2.37,1.23,0,1.69.49,2.8,1.69.3.34.67.71,1.07,1.14,1.39,1.38,2.46,2.46,3.05,3.07-.5.16-1.2.34-2.16.59l-.86.21c-8.85,2.28-8.85,2.28-9.47,3.54l-.06.09a3.14,3.14,0,0,0,.16,3.08,3.05,3.05,0,0,0,2.61,1.44c.21,0,.8,0,8-1.88,3.63-1,6.21-1.59,7-1.78.58.56,2.58,2.55,5.17,5.14,2.3,2.3,3.9,3.93,4.55,4.67-1,.12-3,.37-5.51.64-6.21.71-7.1.86-8.08,1.51a3.22,3.22,0,0,0-1,4.18c.25.46,2.22,3.51,4,6.18,1.44,2.18,2.55,3.93,3.1,4.8-1.16,0-3.53.06-6.27.06-3.72,0-6,0-6.51-.06-.28-.28-1.26-1.42-4.92-6.28-5.23-6.88-5.32-7-7-7a3.5,3.5,0,0,0-1.38.27A3.28,3.28,0,0,0,36,84.17c.18.43,2.46,3.5,3.63,5.07,1.32,1.79,2.43,3.23,3,4-1,0-2.58,0-3.51,0h-.73c-2.59,0-3.75,0-5-1.08s-2.62-3.5-5.32-8.24c-2.18-3.84-5.56-9.71-5.9-10.11a3.54,3.54,0,0,0-2.28-1.17h0a3.18,3.18,0,0,0-2.55,1.26,3.15,3.15,0,0,0-.55,2.74c.18.64,7.53,13.65,9.25,16.57-.55,0-1.38,0-2.09,0H22.49c-2.13,0-3.2,0-3.88-.31s-1-.86-1.87-2.15a26.36,26.36,0,0,0-2.37-3.2,3,3,0,0,0-1.84-.55,3.36,3.36,0,0,0-1.6.4,3.41,3.41,0,0,0-1.54,2.21c-.18.83.12,1.69,1,3.14.07.12.16.24.22.34-.52.09-1.84.12-3.57.15-4.79.09-5.19.09-6.11,1a3.21,3.21,0,0,0-.16,4.43,4.88,4.88,0,0,0,.92.68c.65.33,1,.37,5.14.4,1.51,0,2.73,0,3.47.06-.09.15-.21.34-.34.52a5.7,5.7,0,0,0-.95,2,3.06,3.06,0,0,0,.77,2.46,3.13,3.13,0,0,0,2.37,1.1,2.69,2.69,0,0,0,.49,0c1.2-.21,1.87-1,3.72-3.72.86-1.26,1.23-1.84,1.9-2.12a14,14,0,0,1,4.15-.3h.16c1.66,0,3,0,3.75,0a8.69,8.69,0,0,0-.43.83c-.74,1.35-2.31,4.21-6.46,11.74-.83,1.54-1.81,3.35-2,3.75a3.13,3.13,0,0,0,.25,3,3.07,3.07,0,0,0,2.58,1.42c1.72,0,2.37-.74,3.85-3.45,4.05-7.37,8.7-15.86,9.46-17.21.4,0,1.45,0,3.26,0h1.66c1.79,0,3.48,0,3.66.34s-.74,1.9-1.81,3.75c-1.39,2.36-3,5-3.11,5.41a3.26,3.26,0,0,0,.09,3,3.11,3.11,0,0,0,2.43,1.54h.28a3.31,3.31,0,0,0,2.58-1.33c.25-.33,2.25-3.72,4.06-6.79s2.67-4.55,4-5.26,3.16-.7,6.88-.7c3.2,0,5.44,0,6.52,0-1.51,1.87-5.78,7.28-6.55,8.33-1.32,1.72-1.69,2.61-1.6,3.69a3.07,3.07,0,0,0,1.69,2.55c.53.24,4.86,1.17,7.35,1.69,2.67.55,4.86,1,5.93,1.26-.73.8-2.3,2.4-4.3,4.43-3.32,3.32-4.34,4.33-6.86,4.33a40.18,40.18,0,0,1-5.16-.55c-3.69-.52-7.81-1.08-8.33-1.08h-.06a3.1,3.1,0,0,0-2.52,1.2,3.19,3.19,0,0,0-.53,2.74,3.23,3.23,0,0,0,1.66,2.06c.5.24,6,1,6.24,1,2.22.31,4,.59,5,.74-1.44,1.6-5.62,5.78-6.48,6.49-.89-.22-4.86-1.3-10.58-2.83C34.14,134.59,28.2,133,27.62,133a3,3,0,0,0-2.74,1.69,2.87,2.87,0,0,0,0,2.89c.59,1.26,1,1.35,11,4.09,4.09,1.1,7.16,2,8.48,2.36-.49.53-1.35,1.39-2.49,2.52-2.09,2.09-2.64,2.59-3.56,2.59a11,11,0,0,1-1.94-.31,21.62,21.62,0,0,0-3.84-.59,3.05,3.05,0,0,0-1.32.28,3.15,3.15,0,0,0,0,5.57,9.56,9.56,0,0,0,1.9.55l.49.09c-.49.52-1.32,1.38-2.49,2.55A44.56,44.56,0,0,0,27.65,161a3.51,3.51,0,0,0,0,2.89,3.27,3.27,0,0,0,2.4,1.63,2.86,2.86,0,0,0,.52,0c1.17,0,1.78-.55,4.8-3.56,1.35-1.32,2.09-2,2.52-2.4,0,.18.09.4.12.64.34,1.7.74,2.56,2.09,3.11a3.3,3.3,0,0,0,1.2.25,3.12,3.12,0,0,0,3.1-2.77,16.66,16.66,0,0,0-.55-3.91c-.31-1.5-.43-2.18-.15-2.82s1.1-1.51,2.7-3.14,2.37-2.3,2.77-2.67c.34,1.07,1,3.44,1.87,6.42,1.14,3.91,2.19,7.53,2.4,8.27s.56,1.81.71,2.37A4,4,0,0,0,56,167.88a4.21,4.21,0,0,0,2.62.06,3.16,3.16,0,0,0,1.9-2.89c0-.61-1.35-5.32-1.93-7.32-.5-1.75-1-3.25-1.36-4.64-3-10.17-3-10.17-.67-12.33.33-.3.7-.67,1.13-1.07l3.08-3c.15.49.34,1.19.58,2.15l.22.86c2.27,8.85,2.27,8.85,3.53,9.47l.1.06a3.36,3.36,0,0,0,1.41.34,3.09,3.09,0,0,0,3.1-3.08c0-.21,0-.8-1.87-8-.92-3.51-1.6-6.18-1.78-7,.55-.58,2.55-2.58,5.13-5.16,2.31-2.31,3.93-3.88,4.67-4.55.13,1,.37,3,.65,5.5.7,6.21.86,7.1,1.5,8.08a3.09,3.09,0,0,0,2.56,1.36,3.57,3.57,0,0,0,1.63-.4c.46-.25,3.5-2.22,6.17-4,2.19-1.44,3.94-2.55,4.8-3.1.06,2.7.06,11.68,0,12.79-.25.27-1.42,1.26-6.27,4.91-7.1,5.35-7.23,5.44-7.23,7.11a3.58,3.58,0,0,0,.28,1.38,3.33,3.33,0,0,0,2.89,1.75A3.84,3.84,0,0,0,84,157c.43-.19,3.5-2.46,5.07-3.63l4-3c0,.95,0,2.64,0,4.27,0,2.58,0,3.75-1.08,5s-3.5,2.61-8.24,5.32c-3.84,2.18-9.71,5.56-10.11,5.9a3.48,3.48,0,0,0-1.17,2.27,3.27,3.27,0,0,0,.92,2.28,3.16,3.16,0,0,0,2.25,1,2.69,2.69,0,0,0,.83-.12c.64-.19,13.65-7.53,16.57-9.25,0,.61,0,1.75,0,3.5,0,2.12,0,3.2-.31,3.87s-.86,1-2.15,1.88a24.4,24.4,0,0,0-3.2,2.37,3.27,3.27,0,0,0-.15,3.44,3.44,3.44,0,0,0,2.21,1.54,2.42,2.42,0,0,0,.46.06,5,5,0,0,0,2.68-1.11,3.16,3.16,0,0,0,.33-.21,32.05,32.05,0,0,1,.16,3.56c.06,3.94.15,4.83.31,5.17A3.5,3.5,0,0,0,95,192.69a3.34,3.34,0,0,0,1.3.21,3.22,3.22,0,0,0,1.38-.27,3.06,3.06,0,0,0,1.51-1.48c.33-.65.36-1,.4-5.13,0-1.57,0-2.77.06-3.48l.52.34a5.57,5.57,0,0,0,2.06,1,1.8,1.8,0,0,0,.4,0,3.22,3.22,0,0,0,2.4-1.13,3,3,0,0,0,.7-2.52c-.21-1.2-1-1.88-3.72-3.72-1.26-.86-1.84-1.23-2.12-1.91a15,15,0,0,1-.3-4.15c0-1.84,0-3.17,0-3.9l.83.46c1.32.73,4,2.24,11.74,6.42,1.54.83,3.35,1.82,3.75,2a3.08,3.08,0,0,0,1.26.28,3.13,3.13,0,0,0,3.14-3.11c0-1.72-.74-2.37-3.45-3.84-7.38-4.06-15.86-8.7-17.21-9.47,0-.58-.06-2.34,0-4.89,0-2.06,0-3.66.43-3.66s1.84.77,3.66,1.85c2.36,1.41,5,3,5.41,3.1a3.19,3.19,0,0,0,4.55-2.55,3.25,3.25,0,0,0-1.3-2.83c-.33-.24-3.72-2.24-6.79-4s-4.55-2.68-5.26-4-.7-3.17-.7-6.88c0-3.2,0-5.45,0-6.52,1.87,1.5,7.28,5.78,8.33,6.55,1.6,1.23,2.43,1.63,3.38,1.63h.28a3.08,3.08,0,0,0,2.55-1.7c.24-.52,1.17-4.85,1.69-7.34.55-2.68,1-4.86,1.26-5.94.8.74,2.4,2.31,4.43,4.31,2.42,2.43,3.62,3.63,4.08,5.07s.19,3.29-.33,7-1.08,7.81-1.08,8.33a3.23,3.23,0,0,0,.89,2.3,3,3,0,0,0,2.18.9,2.91,2.91,0,0,0,.87-.13,3.12,3.12,0,0,0,2.06-1.66c.24-.49,1-6,1-6.24.31-2.21.58-4,.74-5,1.6,1.45,5.78,5.63,6.48,6.49-.21.89-1.32,5-2.82,10.57-1.33,4.86-2.92,10.79-2.92,11.38a3.26,3.26,0,0,0,3.13,3.13,3.35,3.35,0,0,0,1.45-.37c1.23-.58,1.35-1,4.09-11,1.1-4.09,2-7.17,2.36-8.49.52.49,1.39,1.36,2.52,2.49,1.48,1.48,2.22,2.22,2.46,2.86s.13,1.26-.18,2.65c-.65,3.16-.77,4.24-.31,5.16a3.09,3.09,0,0,0,2.8,1.69,3.05,3.05,0,0,0,2.76-1.66,9.71,9.71,0,0,0,.56-1.9c0-.19.06-.34.09-.5.52.5,1.38,1.33,2.55,2.49a43.35,43.35,0,0,0,3.75,3.45,3.42,3.42,0,0,0,1.45.3,2.83,2.83,0,0,0,1.44-.33,3.17,3.17,0,0,0,1.6-2.4c.15-1.57-.15-1.91-3.53-5.32-1.33-1.35-2-2.09-2.4-2.52.18,0,.4-.09.64-.12,1.69-.34,2.52-.74,3.11-2.09a3.1,3.1,0,0,0-.19-2.77,3,3,0,0,0-2.33-1.51h-.22a25.66,25.66,0,0,0-3.66.56,11.36,11.36,0,0,1-2,.3c-1,0-1.56-.49-3.93-2.86-1.54-1.53-2.31-2.36-2.67-2.76,1.07-.34,3.44-1,6.42-1.88l8.27-2.4c.74-.21,1.81-.55,2.37-.7a4,4,0,0,0,2.52-1.82,4.2,4.2,0,0,0,.09-2.61,3.15,3.15,0,0,0-2.89-1.91c-.61,0-5.32,1.36-7.32,1.94-1.75.49-3.25.95-4.64,1.35-5.35,1.57-8,2.37-9.53,2.37-1.23,0-1.69-.49-2.8-1.69-.3-.34-.67-.71-1.07-1.14-1.38-1.38-2.46-2.46-3-3.07.49-.16,1.19-.34,2.15-.59l.86-.21c8.85-2.31,8.85-2.31,9.47-3.54l.06-.09a3.11,3.11,0,0,0-2.77-4.49c-.21,0-.8,0-8,1.88-3.63.95-6.21,1.6-7,1.78-.58-.55-2.49-2.46-5.16-5.13-2.31-2.31-3.88-3.94-4.55-4.67,1-.13,3-.37,5.5-.65,6.21-.71,7.1-.86,8.08-1.51a3.21,3.21,0,0,0,1-4.18c-.25-.46-2.22-3.5-4-6.18-1.51-2.27-2.58-3.93-3.1-4.79,1.16,0,3.53,0,6.27,0,3.72,0,6,0,6.51.06.28.28,1.26,1.41,4.92,6.27,5.35,7.1,5.44,7.22,7.1,7.22a3.59,3.59,0,0,0,1.39-.27,3.27,3.27,0,0,0,1.5-4.06c-.18-.43-2.46-3.5-3.62-5.07-1.33-1.79-2.4-3.23-3-4,1,0,2.62,0,3.54,0h.74c2.58,0,3.75,0,4.95,1.08s2.61,3.5,5.31,8.23c2.13,3.72,5.57,9.72,5.91,10.12a3.59,3.59,0,0,0,2.3,1.17,3.21,3.21,0,0,0,3.11-4c-.19-.65-7.53-13.65-9.26-16.57.56,0,1.39,0,2.13,0h1.38c2.12,0,3.2,0,3.87.31s1,.86,1.88,2.15a25.18,25.18,0,0,0,2.36,3.2,2.69,2.69,0,0,0,1.66.52h.28a2.77,2.77,0,0,0,2.58-1.45c.9-1.56.56-2.52-.58-4.27a2.84,2.84,0,0,0-.22-.34c.53-.09,1.85-.12,3.57-.15,4.8-.09,5.2-.09,6.12-1A3.76,3.76,0,0,0,191.81,94.22Zm-75.81,17c-.52-.34-2.46-2.27-4.58-4.39-2.31-2.31-3.44-3.45-4-4.12-.3-.43-.3-.43-.15-.74a17.7,17.7,0,0,0,.83-1.85c.15-.39.15-.43.74-.52.83-.12,2.49-.12,5.81-.15h2.06c2.43,0,4,0,4.52.06.8,1.11,5.35,8,6.67,10.11-.92.13-2.71.34-5,.59-2.8.31-5.94.7-6.27.8A6.11,6.11,0,0,1,116,111.22Zm8.79-23.67c-1.53,1.91-3.84,4.92-4.06,5.35,0,0,0,.06,0,.09-.3.16-2.09.16-6.33.16-4.06,0-5.93,0-6.24-.19a1.3,1.3,0,0,1,0-.15,10.77,10.77,0,0,0-.71-1.94c-.21-.49-.24-.55.1-1a51.72,51.72,0,0,1,4.05-4.22c2.55-2.52,4.31-4.15,4.77-4.55.21,0,.61.1,1,.19,2.92.61,7.35,1.54,9.26,1.91.58.12,1,.21,1.41.3C127.44,84.2,126.3,85.68,124.79,87.55Zm-18-6.27c-2.22,2.21-3.88,3.84-4.46,4.4l-.49-.28a11,11,0,0,0-1.79-.8c-.39-.15-.43-.15-.52-.74-.12-.83-.12-2.49-.15-5.81s0-5.87,0-6.58c1.11-.8,8-5.35,10.11-6.67.13.86.31,2.46.53,4.37.67,5.93.83,7,1,7.56A42.8,42.8,0,0,1,106.75,81.28Zm-7,39.56c-.15-.3-.15-2.09-.15-6.33,0-4.06,0-5.93.18-6.24a1.3,1.3,0,0,1,.15,0,10.5,10.5,0,0,0,1.94-.71,1.77,1.77,0,0,1,.49-.18c.49,0,1.66,1.17,4.77,4.33,2.52,2.55,4.15,4.31,4.55,4.8,0,.21-.09.61-.19,1-.61,3-1.53,7.35-1.9,9.26-.13.58-.22,1-.31,1.41-.77-.58-2.24-1.75-4.12-3.23s-4.92-3.84-5.35-4C99.86,120.84,99.83,120.84,99.8,120.84Zm-16.72,7.23c-.16-1.48-.56-4.92-.59-5.1a52.72,52.72,0,0,0-.95-6.86,63,63,0,0,1,4.4-4.55c2.92-2.89,4.24-4.21,4.58-4.21a1.48,1.48,0,0,1,.27.12,17.7,17.7,0,0,0,1.85.83c.4.12.43.16.49.71.12.83.12,2.49.15,5.81s0,5.9,0,6.58c-.61.46-3.38,2.27-8.42,5.56Zm-7.54-16.33c-.09,0-.18,0-.27-.06l-2.89-.61L67.15,110c-1.07-.21-1.93-.4-2.49-.52.56-.77,1.72-2.24,3.2-4.12s3.87-4.92,4.06-5.35c0,0,0-.06,0-.09.31-.15,2.09-.15,6.33-.15,3.94,0,5.93,0,6.24.18a1.3,1.3,0,0,1,0,.15,10.5,10.5,0,0,0,.71,1.94c.21.49.25.55-.09,1a55.25,55.25,0,0,1-4.06,4.21l-.92.92c-2.8,2.77-3.66,3.63-4.15,3.63A1.67,1.67,0,0,1,75.54,111.74ZM92.85,72.06c.16.31.16,2.09.16,6.33,0,3.94,0,5.93-.19,6.24a1.3,1.3,0,0,1-.15,0,11.61,11.61,0,0,0-1.88.68c-.37.15-.64.27-.83.37-1.26-1.14-8.11-8.18-9-9.29,0-.21.1-.61.19-1,.61-2.92,1.54-7.32,1.91-9.26.12-.58.21-1,.3-1.41.77.58,2.25,1.75,4.12,3.23s4.92,3.84,5.35,4.06A.06.06,0,0,0,92.85,72.06Zm-7.68,18.1c.3.43.3.43.15.74a20.06,20.06,0,0,0-.83,1.85c-.12.4-.15.43-.74.52-.83.12-2.49.12-5.81.15h-2c-2.42,0-4,0-4.52-.06-.79-1.11-5.34-8-6.67-10.11,1-.13,2.77-.34,5-.59,5-.58,6.09-.7,6.92-1,.52.34,2.46,2.28,4.58,4.4C83.51,88.35,84.64,89.52,85.17,90.16Z"/></g></g></svg>