<svg xmlns="http://www.w3.org/2000/svg" viewBox="0 0 195.57 195.53"><defs><style>.cls-1{fill:#FFFFFF;}</style></defs><g id="katman_2" data-name="katman 2"><g id="katman_1-2" data-name="katman 1"><g id="Untitled_Artwork.png" data-name="Untitled Artwork.png"><path id="Untitled_Artwork.png-2" data-name="Untitled Artwork.png" class="cls-1" d="M97.24,195.34a3.71,3.71,0,0,1-1.11-.6c-.56-.5-9.48-12-9.82-12.66a5.71,5.71,0,0,1,.31-4.16c.13-.22,2.14-2.36,4.51-4.79,4.28-4.37,4.28-4.37,4.28-7.36s0-3-1.86-.89a18.93,18.93,0,0,1-2.49,2.49,3.16,3.16,0,0,1-4-.85,3.47,3.47,0,0,1-.26-3c.16-.35,2.15-2.77,4.41-5.35,4.16-4.7,4.16-4.7,4.16-8.63s0-3.94-.44-3.47c-.25.26-2.93,3.28-6,6.68-4.78,5.35-5.67,6.27-6.39,6.55a3,3,0,0,1-3.78-4.09c.25-.54,12.76-14.65,15.62-17.61,1.2-1.23,1.2-1.23,1.2-3.9s0-2.68-2.27-.73c-3,2.62-3.75,3-4.88,3a3.1,3.1,0,0,1-3-3,4.4,4.4,0,0,1,1.73-2.92l4.19-3.53c1.76-1.51,3.43-2.9,3.68-3.09.51-.38.51-.38.54-9,0-4.75,0-8.66-.06-8.63s-3.09,3-6.74,6.52c-6.62,6.49-6.62,6.49-6.21,12.63.41,5.83.41,6.17.1,7a3,3,0,0,1-5.48.25,11.87,11.87,0,0,1-.48-3c-.37-5-.22-4.69-1.66-3.21-1.3,1.29-1.3,1.29-1.86,12-.76,13.48-.82,14.17-1.33,15a3.57,3.57,0,0,1-2.55,1.41,3.31,3.31,0,0,1-3-2.51c-.06-.32.1-4.22.35-8.73s.47-8.44.47-8.82c0-.66,0-.63-2.71,2-2,2-2.74,2.87-2.8,3.28s-.47,3.18-.95,6.39-1,6.17-1.13,6.61a3,3,0,0,1-5.73-.41,9.07,9.07,0,0,1,.22-3.08,19.63,19.63,0,0,0,.31-2.59,27.52,27.52,0,0,0-2.29,2.21c-2.24,2.24-2.24,2.24-2.24,8.6s0,6.36-.57,7.08c-1.32,1.64-1.29,1.64-9.35,3-4.47.76-7.65,1.2-8.16,1.17a5.87,5.87,0,0,1-3.37-2,3.29,3.29,0,0,1-.38-1.73c0-1.23,1.61-14.2,1.89-15.34a4,4,0,0,1,2.18-2.39c1.1-.66,1.1-.66,7.4-.72s6.3-.07,8.44-2.24,2.14-2.17,1-2c-3.81.35-4.73.35-5.58,0a3,3,0,0,1,.79-5.73c.35-.06,2.74-.22,5.26-.38,8.22-.5,7-.12,10.08-3.15,1.48-1.45,2.67-2.67,2.67-2.74s-.31-.09-.69-.06c-2.3.19-15.05.79-16.31.79a3.29,3.29,0,0,1-2.14-.41,3,3,0,0,1,.31-5.23c.69-.32,2.36-.44,12.69-1,6.52-.38,12.06-.63,12.25-.57s.82-.34,2.33-1.85c1.7-1.7,1.89-2,1.48-2a41.51,41.51,0,0,1-7.21-.85,3,3,0,0,1-1.16-4.44,3.69,3.69,0,0,1,2.55-1.26c1.26,0,10.42.76,11.15,1s.75.19,6.89-6c4.07-4.07,6-6.18,5.92-6.27s-4.31-.16-9.32-.16c-9.1,0-9.1,0-13.1,4.6-4.44,5.1-4.94,5.51-6.49,5.26a2.94,2.94,0,0,1-2.52-3.06c0-1.13.29-1.54,2.84-4.47a25.35,25.35,0,0,0,1.86-2.23,7,7,0,0,0-1.77-.1c-1.76,0-1.76,0-10.61,7.94-4.88,4.34-9.17,8.12-9.54,8.41a3.31,3.31,0,0,1-3.37.06,3,3,0,0,1-1-3.91c.22-.44,2.52-2.64,7-6.61,6.68-6,6.68-6,2.83-6-3.11,0-3.9,0-4.22.22s-2.67,1.95-5.44,4a56.25,56.25,0,0,1-5.77,4,3.07,3.07,0,0,1-3.68-3.63c.28-1,.85-1.6,3-3.18,1.89-1.38,1.89-1.38-1.36-1.41s-3.24-.07-5.13,1.88c-6.8,7-6.68,6.9-7.46,7.12a5.67,5.67,0,0,1-3.47-.31c-2.11-1.36-12-8.51-12.41-9a5.44,5.44,0,0,1-.94-3.87,3.64,3.64,0,0,1,.57-1.17c.44-.57,11.93-9.54,12.75-10a5.71,5.71,0,0,1,4.16.31c.22.13,2.36,2.14,4.79,4.51,4.37,4.28,4.37,4.28,7.37,4.28s3,0,.88-1.86a17.2,17.2,0,0,1-2.49-2.49,3.15,3.15,0,0,1,.85-4,3.58,3.58,0,0,1,3-.29,68.06,68.06,0,0,1,5.35,4.41c4.7,4.16,4.7,4.16,8.63,4.16s3.94,0,3.47-.44c-.26-.25-3.28-2.93-6.68-6-5.35-4.78-6.27-5.67-6.55-6.39a3,3,0,0,1,4.09-3.78c.54.25,14.65,12.75,17.61,15.62,1.23,1.2,1.23,1.2,3.9,1.2s2.68,0,.73-2.27c-2.62-3.06-3.06-3.72-3.06-4.88a3.12,3.12,0,0,1,3-3,4.4,4.4,0,0,1,2.93,1.73c.44.53,2,2.42,3.53,4.19S71.76,94.78,72,95c.38.51.38.51,9,.54,4.75,0,8.66,0,8.63-.07s-3-3.08-6.52-6.7c-6.49-6.62-6.49-6.62-12.63-6.21-5.83.41-6.18.41-7,.1a3,3,0,0,1-.25-5.48,11.87,11.87,0,0,1,3-.48c5-.37,4.66-.22,3.21-1.66-1.29-1.3-1.29-1.3-12-1.86-13.48-.76-14.17-.82-15-1.33a3.58,3.58,0,0,1-1.42-2.55,3.32,3.32,0,0,1,2.52-3c.32-.06,4.22.1,8.73.35s8.44.47,8.82.47c.66,0,.63,0-2.08-2.71-2-2-2.87-2.74-3.28-2.8s-3.18-.47-6.39-.95-6.17-1-6.62-1.13a3,3,0,0,1,.41-5.73,10.28,10.28,0,0,1,3.12.22,19.77,19.77,0,0,0,2.58.31,24.63,24.63,0,0,0-2.2-2.29c-2.24-2.24-2.24-2.24-8.6-2.24s-6.36,0-7.08-.57C29.37,48,29.37,48,28,39.92c-.75-4.47-1.19-7.65-1.16-8.16a5.77,5.77,0,0,1,2.08-3.37A3.29,3.29,0,0,1,30.66,28c1.23,0,14.2,1.61,15.34,1.89a4,4,0,0,1,2.39,2.18c.66,1.1.66,1.1.72,7.4s.07,6.3,2.24,8.44,2.17,2.14,2,1c-.35-3.78-.35-4.73,0-5.58a3,3,0,0,1,5.73.79c.06.35.22,2.74.38,5.26.5,8.22.13,7,3.15,10.08,1.45,1.48,2.68,2.67,2.74,2.67s.09-.31.06-.69c-.19-2.3-.79-15.05-.79-16.31A3.29,3.29,0,0,1,65.11,43a3,3,0,0,1,5.23.31c.32.69.44,2.36,1,12.69.38,6.52.63,12.06.57,12.25s.34.82,1.85,2.33c1.7,1.7,2,1.89,2,1.48a41.51,41.51,0,0,1,.85-7.21A3,3,0,0,1,81,63.7a3.69,3.69,0,0,1,1.26,2.55c0,1.26-.76,10.42-1,11.15s-.19.75,6,6.89c4.07,4.07,6.18,6,6.27,5.92s.16-4.31.16-9.32c0-9.1,0-9.1-4.6-13.1-5.1-4.44-5.51-4.94-5.26-6.49a2.94,2.94,0,0,1,3.06-2.52c1.13,0,1.54.29,4.47,2.84a25.35,25.35,0,0,0,2.23,1.86,7,7,0,0,0,.1-1.77c0-1.76,0-1.76-7.94-10.61-4.34-4.88-8.12-9.17-8.41-9.54a3.31,3.31,0,0,1-.06-3.37,3.06,3.06,0,0,1,3.94-1c.44.22,2.64,2.52,6.61,7,6,6.68,6,6.68,6,2.83,0-3.11,0-3.9-.22-4.22s-2-2.67-4-5.44a52.76,52.76,0,0,1-4-5.77,3.06,3.06,0,0,1,3.62-3.68c1,.28,1.6.85,3.18,3,1.39,1.89,1.39,1.89,1.42-1.36s.06-3.24-1.89-5.13c-7-6.8-6.9-6.68-7.09-7.46a5.74,5.74,0,0,1,.32-3.47c1.35-2.11,8.5-12,9-12.41A5.45,5.45,0,0,1,98.09.08a3.59,3.59,0,0,1,1.16.57c.57.44,9.54,11.9,10,12.75a5.87,5.87,0,0,1-.32,4.16c-.13.22-2.14,2.36-4.5,4.79-4.29,4.37-4.29,4.37-4.29,7.37s0,3,1.86.85a17.2,17.2,0,0,1,2.49-2.49,3.15,3.15,0,0,1,4,.88,3.58,3.58,0,0,1,.28,3,68.06,68.06,0,0,1-4.41,5.35c-4.15,4.7-4.15,4.7-4.15,8.63s0,3.94.44,3.47c.25-.26,2.92-3.28,6-6.68,4.79-5.35,5.67-6.27,6.39-6.55a3,3,0,0,1,3.78,4.09c-.25.54-12.75,14.65-15.62,17.61C100,59.07,100,59.07,100,61.74s0,2.68,2.26.73c3.06-2.62,3.72-3,4.89-3a3.1,3.1,0,0,1,3,3,4.46,4.46,0,0,1-1.74,2.93l-4.18,3.52c-1.77,1.51-3.44,2.9-3.69,3.09-.5.38-.5.38-.53,9,0,4.78,0,8.66.06,8.63s3.09-3,6.71-6.52c6.61-6.49,6.61-6.49,6.2-12.63-.41-5.83-.41-6.17-.09-7a3,3,0,0,1,5.48-.22,16.42,16.42,0,0,1,.53,3.93c.13,1.86.29,3.41.32,3.44a8.84,8.84,0,0,0,1.29-1.2c1.23-1.26,1.23-1.26,1.82-12,.76-13.48.82-14.17,1.33-15a3.57,3.57,0,0,1,2.55-1.41,3.3,3.3,0,0,1,3,2.52c.06.31-.09,4.22-.35,8.72s-.47,8.44-.47,8.82c0,.66,0,.63,2.71-2,2-2,2.74-2.87,2.8-3.28s.48-3.18.95-6.39,1-6.17,1.13-6.61a3,3,0,0,1,5.73.41,8.81,8.81,0,0,1-.22,3.08,21.85,21.85,0,0,0-.31,2.59,28.49,28.49,0,0,0,2.3-2.21c2.23-2.23,2.23-2.23,2.23-8.6s0-6.36.57-7.08c1.32-1.64,1.29-1.64,9.35-3,4.48-.76,7.66-1.2,8.16-1.17a5.93,5.93,0,0,1,3.37,2.05,3.29,3.29,0,0,1,.38,1.73c0,1.23-1.61,14.2-1.89,15.34a4,4,0,0,1-2.18,2.39c-1.1.66-1.1.66-7.4.72s-6.29.07-8.44,2.24-2.14,2.17-1,2c3.78-.35,4.72-.35,5.57,0a3,3,0,0,1-.79,5.73c-.34.06-2.71.22-5.26.38-8.22.5-7,.13-10.07,3.15-1.48,1.45-2.68,2.68-2.68,2.74s.31.09.69.06c2.3-.19,15.06-.79,16.32-.79a3.32,3.32,0,0,1,2.14.41,3,3,0,0,1-.32,5.23c-.69.32-2.36.44-12.69,1-6.52.35-12.06.63-12.25.57s-.82.34-2.33,1.85c-1.7,1.7-1.89,2-1.48,2a41.51,41.51,0,0,1,7.21.85A3,3,0,0,1,131.82,81a3.69,3.69,0,0,1-2.56,1.26c-1.25,0-10.42-.76-11.14-1s-.76-.19-6.9,6c-4.06,4.07-6,6.18-5.92,6.27s4.31.16,9.32.16c9.1,0,9.1,0,13.1-4.6,4.44-5.1,4.95-5.51,6.49-5.26a2.94,2.94,0,0,1,2.52,3.06c0,1.13-.28,1.54-2.84,4.47A26.29,26.29,0,0,0,132,93.61a6.87,6.87,0,0,0,1.76.1c1.76,0,1.76,0,10.61-7.94,4.88-4.34,9.17-8.12,9.55-8.41a3.31,3.31,0,0,1,3.37-.06,3.09,3.09,0,0,1,1.07,3.91c-.22.44-2.52,2.64-7,6.61-6.67,6-6.67,6-2.83,6,3.12,0,3.91,0,4.22-.23s2.68-2,5.45-4a52.84,52.84,0,0,1,5.76-4,3.07,3.07,0,0,1,3.69,3.62c-.29,1-.85,1.6-3,3.18-1.89,1.38-1.89,1.38,1.36,1.42s3.24.06,5.13-1.89c6.8-7,6.68-6.9,7.5-7.12a5.64,5.64,0,0,1,3.46.31c2.11,1.36,12,8.51,12.41,9a5.54,5.54,0,0,1,.94,3.87,3.52,3.52,0,0,1-.56,1.17c-.44.57-11.94,9.54-12.76,10a5.68,5.68,0,0,1-4.15-.31c-.22-.13-2.37-2.14-4.79-4.51-4.38-4.28-4.38-4.28-7.37-4.28s-3,0-.88,1.86a17.77,17.77,0,0,1,2.49,2.49,3.14,3.14,0,0,1-.89,4,3.58,3.58,0,0,1-3,.29c-.34-.16-2.77-2.14-5.35-4.41-4.69-4.13-4.69-4.13-8.63-4.16s-3.94,0-3.46.44c.25.26,3.27,2.93,6.67,6,5.36,4.79,6.27,5.67,6.55,6.39a3,3,0,0,1-4.09,3.78c-.54-.25-14.64-12.75-17.61-15.62-1.22-1.2-1.22-1.2-3.9-1.2s-2.68,0-.72,2.27c2.61,3.06,3,3.75,3,4.88a3.09,3.09,0,0,1-3,3,4.42,4.42,0,0,1-2.93-1.73c-.44-.53-2.05-2.42-3.56-4.19s-2.9-3.43-3.09-3.68c-.37-.51-.37-.51-9-.54-4.78,0-8.66,0-8.62.07s3,3.08,6.51,6.74c6.49,6.61,6.49,6.61,12.63,6.2,5.83-.38,6.18-.41,7-.09a3,3,0,0,1,.26,5.48,12.77,12.77,0,0,1-3,.47c-5,.38-4.69.22-3.21,1.67,1.29,1.29,1.29,1.29,12,1.85,13.48.76,14.17.82,15,1.33a3.58,3.58,0,0,1,1.42,2.55,3.31,3.31,0,0,1-2.52,3c-.32.06-4.22-.09-8.73-.35s-8.44-.47-8.81-.47c-.67,0-.63,0,2,2.71,2,2,2.87,2.74,3.28,2.8s3.18.48,6.39.95,6.17,1,6.61,1.13a3,3,0,0,1-.41,5.73,10.22,10.22,0,0,1-3.11-.22,21.85,21.85,0,0,0-2.59-.31,28.49,28.49,0,0,0,2.21,2.3c2.24,2.23,2.24,2.23,8.6,2.23s6.36,0,7.08.57c1.64,1.32,1.64,1.29,3,9.35.76,4.48,1.2,7.66,1.17,8.16a5.87,5.87,0,0,1-2,3.37,3.29,3.29,0,0,1-1.73.38c-1.23,0-14.2-1.61-15.34-1.89a4,4,0,0,1-2.39-2.18c-.66-1.1-.66-1.1-.72-7.4s-.07-6.29-2.21-8.44-2.17-2.14-2-1c.35,3.78.35,4.72,0,5.57a3,3,0,0,1-5.73-.79c-.06-.34-.22-2.74-.38-5.26-.5-8.22-.12-7-3.15-10.07-1.45-1.48-2.67-2.68-2.74-2.68s-.09.31-.06.69c.19,2.3.79,15.06.79,16.32a3.32,3.32,0,0,1-.41,2.14,3,3,0,0,1-5.23-.32c-.31-.69-.44-2.36-1-12.69-.34-6.52-.63-12.06-.56-12.25s-.35-.82-1.86-2.33c-1.7-1.7-1.95-1.89-1.95-1.48a43.58,43.58,0,0,1-.85,7.21,3,3,0,0,1-4.45,1.17,3.69,3.69,0,0,1-1.26-2.56c0-1.25.76-10.42,1-11.14s.19-.76-6-6.9c-4.07-4.06-6.18-6-6.27-5.92s-.16,4.31-.16,9.32c0,9.1,0,9.1,4.6,13.1,5.1,4.44,5.51,4.95,5.26,6.49a2.94,2.94,0,0,1-3,2.52c-1.14,0-1.55-.28-4.48-2.84A26.29,26.29,0,0,0,101.9,132a6.87,6.87,0,0,0-.1,1.76c0,1.76,0,1.76,7.94,10.61,4.35,4.88,8.12,9.17,8.41,9.55a3.31,3.31,0,0,1,.06,3.37,3.12,3.12,0,0,1-3.94,1.07c-.44-.22-2.64-2.52-6.61-7-6-6.67-6-6.67-6-2.83,0,3.12,0,3.91.22,4.22s1.95,2.68,4,5.45a55.49,55.49,0,0,1,4,5.76,3.08,3.08,0,0,1-3.63,3.69c-1-.29-1.6-.85-3.18-3-1.38-1.89-1.38-1.89-1.41,1.36s-.07,3.24,1.88,5.13c6.78,6.58,6.9,6.71,7.09,7.37a5.47,5.47,0,0,1,0,2.84c-.19.69-8,11.81-9.07,12.91a5.56,5.56,0,0,1-3,1.23A3.45,3.45,0,0,1,97.24,195.34Z"/></g></g></g></svg>