<svg xmlns="http://www.w3.org/2000/svg" viewBox="0 0 208.31 208.41"><defs><style>.cls-1{fill:#FFFFFF;}</style></defs><g id="katman_2" data-name="katman 2"><g id="katman_1-2" data-name="katman 1"><path class="cls-1" d="M206.68,101.6c-1-.63-1-.63-10.43-.73-4.15,0-7.14-.07-7.57-.47a8.76,8.76,0,0,1,1.57-2.18A36.88,36.88,0,0,0,193.5,94a4,4,0,0,0-1.74-5.06,3.69,3.69,0,0,0-1.74-.5,4,4,0,0,0-1.74.47c-.81.4-1.91,1.61-5.9,6.37-4.7,5.59-4.7,5.59-8.48,5.59-1.38,0-2.42,0-3-.06.06-.1.13-.2.23-.34,2.18-3.08,9.25-13.44,9.59-14a5.2,5.2,0,0,0,.37-1.91,3.61,3.61,0,0,0-3.86-3.76h-.13c-2,0-2.32.4-9.42,10.76-6.4,9.32-6.4,9.32-8,9.42-1.28.07-3.49.14-5.1.14-1,0-1.71,0-2.18,0,.47-.77,1.41-2.24,2.75-4.32,1.61-2.48,3.46-5.33,3.69-5.87a3.69,3.69,0,0,0-1-4.63,3.8,3.8,0,0,0-2.48-.93,3.86,3.86,0,0,0-2.81,1.24c-.47.5-2.62,3.65-4.39,6.43-1.44,2.25-2.62,4-3.22,4.86a1.3,1.3,0,0,0-.13-.3c-.51-1.31-3.93-10.52-4.93-13.34-.4-1-.87-2.31-1.07-2.85,0,0,0-.1-.07-.17l5.83.64c4,.47,5.73.67,6.81.67a3.25,3.25,0,0,0,1.94-.47,3.9,3.9,0,0,0-.44-7,63.08,63.08,0,0,0-6.5-.94c-2.14-.23-3.85-.44-4.83-.57,1.48-1.58,5.23-5.3,6.21-6.17a2.06,2.06,0,0,0,.33.2c.67.51,1.34.64,17.77,3.25a25.42,25.42,0,0,0,3.85.47,3.35,3.35,0,0,0,2.58-1,3.76,3.76,0,0,0,1.21-3.39,3.71,3.71,0,0,0-2.11-2.91c-.61-.31-3.09-.77-15.72-2.79l-1.45-.26a20,20,0,0,1,2.05-2.18,23.57,23.57,0,0,1,2.81-2.65.29.29,0,0,1,.1,0c.64.24,8,.87,8.12.87,3.58.31,5.56.47,6.77.47a3.5,3.5,0,0,0,2.71-.87,4,4,0,0,0,.94-4.76,4.56,4.56,0,0,0-2.35-2c-.43-.13-6.7-.7-9.25-.87,1.28-1.44,4.56-4.69,5.77-5.93,6.87-6.87,7.1-7.44,7.21-7.71a3.83,3.83,0,0,0-.17-3.39,3.89,3.89,0,0,0-3.45-2.08,4.06,4.06,0,0,0-1.65.37c-.7.37-7.1,6.74-7.17,6.81-2.58,2.55-4.59,4.52-5.6,5.53-.07-.81-.2-2.08-.37-3.62-.5-5-.67-6-2.11-6.94a4.07,4.07,0,0,0-2.28-.74,3.67,3.67,0,0,0-2.61,1.11c-1.44,1.44-1.41,1.78-.64,10.29.34,3.69.5,5.56.27,6.77s-.87,1.78-2.25,3.15c-.94.94-1.71,1.71-2.11,2,0-.16-.1-.43-.13-.63-.17-.94-.94-5-1.71-9.15-1.51-8-1.61-8.72-3.32-9.59a3.81,3.81,0,0,0-1.81-.44,4.1,4.1,0,0,0-3.28,1.68c-.78,1-.71,3,.43,8.88.91,4.73,2.75,14.65,3,15.89a36.15,36.15,0,0,1-3.32,3.65c-1.14,1.18-2.24,2.28-2.61,2.28h0c-.37-.1-.87-2.38-1.38-4.79-1.24-5.83-1.44-6.64-2-7.34a4,4,0,0,0-3.15-1.58A3.7,3.7,0,0,0,125.9,57c-.07.8.3,2.88,1.34,7.74.6,2.85,1.07,5.06,1.27,6.1-.57-.23-1.47-.67-2-.9-1.51-.71-2-.91-2.18-1h0c-.1,0-.94-.43-2.25-1L115.77,65c-1.57-.7-2.68-1.27-3.28-1.61.8-.67,2.51-2.08,4.66-3.79s5.33-4.32,5.66-4.79a4.59,4.59,0,0,0,0-4.29,4.11,4.11,0,0,0-3.31-1.71,4,4,0,0,0-1.68.37,47.48,47.48,0,0,0-4.09,3c-.67.53-1.27,1-1.81,1.47A19,19,0,0,1,109,55.88a13.82,13.82,0,0,1-.06-2.21V52c0-2.31,0-4.09.06-4.66a7.67,7.67,0,0,0,1.24-.47c1-.53,15.72-11.09,16.73-12A3.84,3.84,0,0,0,124.52,28a4.29,4.29,0,0,0-2,.54c-.57.34-10.66,7.54-13.51,9.66,0-.84,0-2.22,0-3a28,28,0,0,1,.1-3.59c.07-.33.1-.37.5-.6,1.11-.67,10.43-8.52,11.33-9.56a3.76,3.76,0,0,0,1-3.52,4,4,0,0,0-3.83-3,4.1,4.1,0,0,0-1.54.3A49.9,49.9,0,0,0,112,18.81a9.56,9.56,0,0,1-2.44,1.77c-.44-.33-.47-3.65-.54-7.84-.1-9.62-.1-9.79-.6-10.73A3.78,3.78,0,0,0,105,0a3.68,3.68,0,0,0-3.29,1.74c-.63,1-.63,1-.73,10.43,0,4.16-.07,7.14-.47,7.54a8.32,8.32,0,0,1-2.18-1.57A37.24,37.24,0,0,0,94,14.88a4.29,4.29,0,0,0-1.57-.33A3.92,3.92,0,0,0,89,16.63a3.33,3.33,0,0,0,0,3.48c.4.81,1.61,1.91,6.4,5.9,5.6,4.7,5.6,4.7,5.6,8.48,0,1.34,0,2.42-.07,2.95l-.34-.23C97.44,35,87.08,28,86.48,27.62a4.22,4.22,0,0,0-1.81-.37,3.75,3.75,0,0,0-2,.51,3.93,3.93,0,0,0-1.74,2.48,3.8,3.8,0,0,0,.54,2.95c.4.6,1.91,1.77,10.19,7.44,9.32,6.4,9.32,6.4,9.42,8,.13,2,.13,5.7.1,7.27-.77-.46-2.25-1.4-4.36-2.74-2.48-1.61-5.33-3.46-5.87-3.69a4.08,4.08,0,0,0-1.74-.4,3.86,3.86,0,0,0-2.88,1.4,3.76,3.76,0,0,0,.3,5.3c.5.47,3.65,2.62,6.44,4.39,2.24,1.44,4,2.62,4.86,3.22a1.37,1.37,0,0,0-.31.13C96.23,64,87,67.45,84.23,68.45c-1,.37-2.31.87-2.85,1.07a1.11,1.11,0,0,1-.16.07c.1-.9.33-3.08.63-5.83.81-6.94.88-7.51.17-8.75a3.79,3.79,0,0,0-3.35-1.94,3.9,3.9,0,0,0-3.62,2.38c-.24.53-.7,4.49-.94,6.5s-.43,3.82-.57,4.83c-1.57-1.48-5.29-5.23-6.17-6.21a2.06,2.06,0,0,0,.2-.33c.51-.67.64-1.34,3.26-17.77.67-4.15.7-5-.54-6.43a3.76,3.76,0,0,0-2.85-1.28A3.86,3.86,0,0,0,64,36.91c-.3.6-.77,3.08-2.78,15.72a11.8,11.8,0,0,1-.27,1.44,18.84,18.84,0,0,1-2.17-2,23.1,23.1,0,0,1-2.65-2.82.41.41,0,0,1,0-.1c.24-.64.87-8,.87-8.08.71-8.11.71-8.11-.4-9.52a3.84,3.84,0,0,0-3-1.34,3.54,3.54,0,0,0-1.71.4,4.56,4.56,0,0,0-2,2.35c-.13.43-.7,6.7-.87,9.25C47.53,40.9,44.28,37.61,43,36.4c-6.87-6.87-7.44-7.1-7.71-7.2a3.71,3.71,0,0,0-1.54-.34,4,4,0,0,0-3.56,5.6c.37.7,6.74,7.11,6.81,7.17,2.48,2.52,4.52,4.56,5.53,5.6-.84.1-2.11.2-3.62.37-5,.47-6,.67-6.94,2.11a3.78,3.78,0,0,0,.37,4.9,3.47,3.47,0,0,0,3.12,1.17c1.34,0,3.38-.17,7.17-.54,2.48-.23,4.12-.36,5.3-.36,2.24,0,2.74.5,4.62,2.38a27.65,27.65,0,0,1,2,2.11c-.16,0-.43.1-.63.13-1,.2-5.17,1-9.15,1.71-8,1.48-8.72,1.61-9.59,3.32a4,4,0,0,0,1.24,5.1,3.29,3.29,0,0,0,2.08.5,41.41,41.41,0,0,0,6.8-.94c4.73-.91,14.65-2.75,15.89-3a37.27,37.27,0,0,1,3.65,3.32c1.11,1.07,2.35,2.31,2.28,2.61s-2.38.87-4.82,1.38c-5.8,1.24-6.64,1.44-7.34,2a4,4,0,0,0-1.41,4.29A3.66,3.66,0,0,0,57,82.46h.2a51.19,51.19,0,0,0,7.55-1.34c2.78-.6,5-1.07,6.1-1.27-.24.57-.67,1.47-.91,2-.7,1.51-.9,2-1,2.18h0c0,.1-.44.94-1,2.25S66,90.41,65,92.59c-.7,1.57-1.27,2.68-1.61,3.28-.67-.8-2.07-2.51-3.78-4.66s-4.33-5.33-4.8-5.66a4.53,4.53,0,0,0-4.29,0,4.05,4.05,0,0,0-1.3,5,47.48,47.48,0,0,0,3,4.09c.53.67,1,1.28,1.47,1.81a19,19,0,0,1,2.18,2.92,7.14,7.14,0,0,1-1.21.07H52c-2.35,0-4.09,0-4.66-.07a9.22,9.22,0,0,0-.47-1.24c-.54-1-11.09-15.72-12-16.73a3.86,3.86,0,0,0-6.3.47,4.05,4.05,0,0,0,0,4c.33.57,7.54,10.66,9.65,13.54-.84,0-2.21,0-3,0a28,28,0,0,1-3.59-.1c-.34-.07-.37-.11-.6-.51-.67-1.1-8.52-10.42-9.56-11.33a4,4,0,0,0-2.61-1.07,2.9,2.9,0,0,0-.91.13,4.12,4.12,0,0,0-2.61,2.15,3.89,3.89,0,0,0-.07,3.22,49.9,49.9,0,0,0,3.56,4.56,9.65,9.65,0,0,1,1.77,2.44c-.33.44-3.65.47-7.84.54-9.62.1-9.79.1-10.73.6a3.95,3.95,0,0,0-.27,6.71c1,.63,1,.63,10.43.73,4.15,0,7.14.07,7.57.47a8.32,8.32,0,0,1-1.57,2.18,38.09,38.09,0,0,0-3.25,4.26,4,4,0,0,0,1.74,5.06,3.74,3.74,0,0,0,1.74.51,4.18,4.18,0,0,0,1.75-.47c.8-.41,1.91-1.61,5.9-6.37,4.69-5.6,4.69-5.6,8.48-5.6,1.37,0,2.41,0,2.95.07a2.1,2.1,0,0,1-.24.3C35.06,111,28,121.35,27.65,122a4.6,4.6,0,0,0,.1,3.86,4,4,0,0,0,3.36,1.84,3.76,3.76,0,0,0,2.07-.6c.61-.4,1.78-1.91,7.45-10.19,6.4-9.32,6.4-9.32,8-9.42,1.27-.07,3.48-.14,5.09-.14,1,0,1.71,0,2.18,0-.47.8-1.44,2.31-2.75,4.32-1.61,2.48-3.45,5.33-3.69,5.87a3.69,3.69,0,0,0,1,4.62,3.78,3.78,0,0,0,2.48.94,3.88,3.88,0,0,0,2.82-1.24c.47-.5,2.61-3.65,4.39-6.43,1.4-2.18,2.58-4,3.21-4.86a1.35,1.35,0,0,0,.14.3c.5,1.34,3.92,10.56,4.93,13.34.37,1,.87,2.31,1.07,2.85a1.22,1.22,0,0,0,.07.17c-.91-.1-3.09-.34-5.84-.67-4-.47-5.73-.68-6.8-.68a3.52,3.52,0,0,0-2,.47A3.85,3.85,0,0,0,53,129.93a3.9,3.9,0,0,0,2.38,3.39c.53.23,4.89.77,6.5.94,2.15.23,3.85.43,4.83.57-1.48,1.57-5.23,5.29-6.2,6.16l-.34-.2c-.67-.5-1.34-.63-17.76-3.25a27.07,27.07,0,0,0-3.86-.47,3.36,3.36,0,0,0-2.58,1,3.84,3.84,0,0,0-1.24,3.38,3.73,3.73,0,0,0,2.11,2.92c.64.3,3.09.77,15.72,2.78a14.12,14.12,0,0,1,1.44.27,16.49,16.49,0,0,1-2,2.18,24.2,24.2,0,0,1-2.82,2.65l-.13,0c-.64-.23-8-.87-8.08-.87-3.59-.3-5.56-.47-6.77-.47a3.38,3.38,0,0,0-2.71.87,4,4,0,0,0-.94,4.76,4.63,4.63,0,0,0,2.34,2c.44.14,6.71.71,9.25.87-1.27,1.44-4.55,4.7-5.76,5.94-6.87,6.87-7.11,7.44-7.21,7.71a3.68,3.68,0,0,0,.17,3.38,3.87,3.87,0,0,0,3.45,2.08,3.82,3.82,0,0,0,1.64-.37c.71-.37,7.11-6.74,7.18-6.8l5.6-5.53c.06.83.2,2.11.36,3.62.51,5,.71,6,2.12,6.94a4.14,4.14,0,0,0,2.28.73,3.71,3.71,0,0,0,2.61-1.1c1.44-1.44,1.41-1.78.64-10.29-.34-3.69-.51-5.57-.27-6.78s.87-1.77,2.24-3.15a22.33,22.33,0,0,1,2.12-2c0,.17.1.44.13.64.2,1,1,5.16,1.71,9.15,1.47,8,1.61,8.72,3.32,9.59a3.8,3.8,0,0,0,1.81.43,4.09,4.09,0,0,0,3.28-1.67c.77-1,.71-3-.43-8.89-.91-4.72-2.75-14.65-3-15.89a37.27,37.27,0,0,1,3.32-3.65c1.14-1.17,2.24-2.28,2.61-2.28h0c.37.1.87,2.38,1.37,4.83,1.24,5.8,1.45,6.64,2,7.34a4,4,0,0,0,3.15,1.57,3.7,3.7,0,0,0,3.75-3.55c.07-.8-.3-2.88-1.34-7.74-.6-2.78-1.07-5-1.27-6.1.57.23,1.47.67,2,.9,1.51.71,2,.91,2.18,1h0l2.24,1c1.24.57,4.06,1.88,6.27,2.92,1.58.7,2.68,1.27,3.29,1.61-.81.67-2.52,2.08-4.66,3.79s-5.33,4.32-5.67,4.79a4.64,4.64,0,0,0,0,4.29,4.22,4.22,0,0,0,3.32,1.71,4,4,0,0,0,1.68-.37,51,51,0,0,0,4.09-3c.67-.53,1.27-1,1.81-1.47a20,20,0,0,1,2.91-2.18,13.78,13.78,0,0,1,.07,2.24v1.68c0,2.31,0,4.09-.07,4.66a8.46,8.46,0,0,0-1.24.47c-1,.54-15.72,11.06-16.72,12a3.88,3.88,0,0,0-.24,5.77,4,4,0,0,0,2.68,1,4.28,4.28,0,0,0,2-.53c.57-.34,10.65-7.54,13.5-9.66,0,.84,0,2.25,0,3a28,28,0,0,1-.1,3.59c-.07.33-.1.37-.47.6-1.11.67-10.43,8.52-11.33,9.55a3.74,3.74,0,0,0-1,3.52,4,4,0,0,0,3.82,3,4.1,4.1,0,0,0,1.54-.3,47.25,47.25,0,0,0,4.56-3.56,9.56,9.56,0,0,1,2.44-1.77c.44.33.47,3.65.54,7.84.1,9.62.1,9.79.6,10.73a3.88,3.88,0,0,0,2.35,1.94,3.35,3.35,0,0,0,.91.14,5,5,0,0,0,2.14-.47,4.1,4.1,0,0,0,1.31-1.31c.63-1,.63-1,.74-10.43,0-4.15.06-7.14.46-7.54a8.44,8.44,0,0,1,2.18,1.58,38.09,38.09,0,0,0,4.26,3.25,3.77,3.77,0,0,0,1.58.33,3.92,3.92,0,0,0,3.48-2.07,3.35,3.35,0,0,0,0-3.49c-.4-.81-1.6-1.91-6.36-5.9-5.6-4.69-5.6-4.69-5.6-8.48,0-1.34,0-2.42.07-2.95.1.07.2.17.3.23,3.08,2.18,13.44,9.26,14,9.59a5.2,5.2,0,0,0,1.91.37,3.6,3.6,0,0,0,3.76-3.86c0-2.14-.2-2.28-10.76-9.55-9.32-6.4-9.32-6.4-9.42-8-.14-2-.14-5.7-.1-7.28.77.47,2.28,1.41,4.35,2.75,2.49,1.61,5.33,3.46,5.87,3.69a4.19,4.19,0,0,0,1.74.4,3.85,3.85,0,0,0,2.89-1.41,3.75,3.75,0,0,0-.31-5.29c-.5-.47-3.65-2.62-6.43-4.39-2.25-1.44-4-2.62-4.86-3.22a1,1,0,0,0,.3-.14c1.27-.5,10.49-3.92,13.34-4.92,1-.37,2.31-.87,2.85-1.08l.17-.06c-.1.9-.34,3.08-.64,5.83-.8,6.94-.87,7.51-.17,8.75a3.91,3.91,0,0,0,7-.44c.23-.53.7-4.49.93-6.5s.44-3.82.57-4.83c1.58,1.48,5.3,5.23,6.17,6.2a4.1,4.1,0,0,1-.23.34c-.51.67-.64,1.34-3.26,17.77-.67,4.15-.7,5,.54,6.43a3.77,3.77,0,0,0,2.85,1.28,3.86,3.86,0,0,0,3.49-2.15c.3-.6.77-3.08,2.78-15.72a14.12,14.12,0,0,1,.27-1.44,18.67,18.67,0,0,1,2.18,2,22.65,22.65,0,0,1,2.64,2.82s0,.1,0,.13c-.24.64-.87,8-.87,8.12-.71,8.11-.71,8.11.4,9.48a3.84,3.84,0,0,0,3,1.34,3.54,3.54,0,0,0,1.71-.4,4.56,4.56,0,0,0,2-2.35c.13-.43.7-6.7.87-9.25,1.44,1.28,4.69,4.56,5.93,5.77,6.87,6.87,7.44,7.1,7.71,7.2a3.71,3.71,0,0,0,1.54.34,4,4,0,0,0,1.85-.5,3.88,3.88,0,0,0,1.71-5.1c-.37-.7-6.74-7.1-6.81-7.17-2.55-2.58-4.52-4.56-5.53-5.6.81-.07,2.05-.2,3.62-.37,5-.47,6-.67,6.94-2.11a3.75,3.75,0,0,0-.37-4.89,3.48,3.48,0,0,0-3.12-1.18c-1.3,0-3.38.17-7.17.54-2.48.23-4.12.37-5.3.37-2.24,0-2.74-.51-4.62-2.38a27.25,27.25,0,0,1-2-2.12c.17,0,.43-.1.63-.13l9.16-1.71c8-1.51,8.71-1.61,9.58-3.32a4,4,0,0,0-1.27-5.09,3.42,3.42,0,0,0-2.08-.51,41.28,41.28,0,0,0-6.8.94c-4.76.91-14.69,2.75-15.89,2.95a36.06,36.06,0,0,1-3.66-3.32c-1.1-1.07-2.34-2.31-2.28-2.61s2.38-.87,4.8-1.37c5.8-1.25,6.63-1.45,7.34-2a4,4,0,0,0,1.41-4.29,3.68,3.68,0,0,0-3.39-2.61h-.2a52.49,52.49,0,0,0-7.54,1.34c-2.78.6-5,1.07-6.1,1.27.23-.57.67-1.47.9-2,.71-1.51.91-2,1-2.18h0c0-.1.41-.91,1-2.25s1.88-4,2.92-6.27c.7-1.57,1.27-2.68,1.61-3.28.67.8,2.08,2.51,3.79,4.66s4.32,5.33,4.79,5.66a4.53,4.53,0,0,0,4.29,0,4,4,0,0,0,1.31-5,49.81,49.81,0,0,0-3.05-4.09l-1.48-1.81a21.41,21.41,0,0,1-2.18-2.92,7.79,7.79,0,0,1,1.21-.06h2.72c2.31,0,4.08,0,4.65.06a10.14,10.14,0,0,0,.47,1.24c.54,1,11.06,15.73,12,16.73a3.75,3.75,0,0,0,3,1.41,3.79,3.79,0,0,0,3.25-1.88,4.05,4.05,0,0,0,0-4c-.34-.57-7.54-10.66-9.65-13.54.83,0,2.24,0,3,0a28,28,0,0,1,3.59.1c.33.06.37.1.6.5.67,1.11,8.52,10.42,9.55,11.33a4,4,0,0,0,2.62,1.07,2.8,2.8,0,0,0,.9-.13,4.14,4.14,0,0,0,2.62-2.11,3.78,3.78,0,0,0,.07-3.22,47.25,47.25,0,0,0-3.56-4.56,9.55,9.55,0,0,1-1.77-2.45c.33-.43,3.65-.47,7.84-.53,9.62-.1,9.79-.1,10.73-.61a3.69,3.69,0,0,0,2-3.42A3.33,3.33,0,0,0,206.68,101.6Zm-67.71,5c-.07.13-.17.3-.27.5-1.17,2.52-2.08,4.53-2.75,6-.33.71-.9,2-1.3,2.89s-2.05,4.42-3.66,7.91c-.27.57-.5,1.07-.7,1.51-1.07,2.38-1.64,3.58-2.48,4.35s-2.11,1.21-4.59,2.12l-1.61.57c-.87.3-4.63,1.7-8.35,3.08s-7.57,2.82-8.61,3.18-1.61.54-1.88.61a13.18,13.18,0,0,1-1.27-.57c-1.31-.64-2.48-1.18-5.77-2.68-.94-.44-2.38-1.11-3.28-1.51l-7.91-3.66c-.54-.27-1.08-.47-1.51-.7-2.38-1.07-3.59-1.64-4.36-2.48s-1.21-2.11-2.11-4.59c-.17-.47-.37-1-.57-1.61-.34-.87-1.71-4.63-3.09-8.35-.4-1.11-.8-2.11-1.14-3-2.78-7.41-2.78-7.41-2.24-8.41.07-.14.17-.3.27-.5,1.17-2.55,2.11-4.56,2.75-6,.33-.71.9-2,1.3-2.89s2-4.42,3.66-7.91c.26-.57.47-1.07.7-1.51,1.07-2.38,1.64-3.58,2.48-4.35s2.11-1.21,4.59-2.12c.47-.16,1-.37,1.61-.57l8.35-3.08c1.1-.4,2.11-.8,3-1.14,4.93-1.84,6.78-2.55,7.58-2.55a1.86,1.86,0,0,1,.84.27l.5.27c2.51,1.17,4.53,2.08,6,2.75.7.33,2,.9,2.88,1.3L124,77.37c.57.27,1.08.47,1.51.7,2.38,1.08,3.59,1.61,4.36,2.48s1.21,2.12,2.11,4.6c.17.47.37,1,.57,1.6.3.88,1.68,4.53,3.08,8.35.41,1.14.81,2.15,1.14,3C139.51,105.63,139.51,105.63,139,106.6Z"/></g></g></svg>