<svg xmlns="http://www.w3.org/2000/svg" viewBox="0 0 192.15 192.18"><defs><style>.cls-1{fill:#FFFFFF;}</style></defs><g id="katman_2" data-name="katman 2"><g id="katman_1-2" data-name="katman 1"><g id="Untitled_Artwork_7_.png" data-name="Untitled_Artwork (7).png"><path id="Untitled_Artwork_7_.png-2" data-name="Untitled_Artwork (7).png" class="cls-1" d="M88.4,191.93a2.85,2.85,0,0,1-1.73-3.86c.19-.46,3.34-4.32,5.59-6.91.56-.62.56-.62.65-7.94.06-4,.09-7.32.06-7.35s-1.6,2.38-3.49,5.31-3.67,5.59-4,5.9a2.83,2.83,0,0,1-4.76-1.66,3.15,3.15,0,0,1,.1-1.27q.22-.65,10.22-16.06c2-3.12,2-3.12,2.1-7.69.06-3.05,0-4.5-.1-4.38s-1.42,2.07-2.93,4.42a37.86,37.86,0,0,1-3.3,4.6,2.9,2.9,0,0,1-4.2-1,3.68,3.68,0,0,1-.06-2.51c.4-.8,9.66-14.94,10.25-15.62s.55-.71.52-4.11,0-3.39-2.25-.64a30.38,30.38,0,0,1-2.78,3.15,3,3,0,0,1-2.72.12,3,3,0,0,1-1.51-3.21c.22-.81.4-1,5.31-7.29,2.07-2.62,3.83-4.91,3.92-5.09s.19-2.63.16-7.82c0-7.47,0-7.47-5.65-1.94s-5.59,5.49-5.78,6.73c-.09.68-.52,3.95-1,7.32-.89,6.91-1,7.28-2.28,8a2.85,2.85,0,0,1-4.23-2.47c0-.37.18-2.13.43-3.92s.4-3.27.37-3.3-1.11,1-2.44,2.19c-2.19,2.1-2.37,2.32-2.47,3-.06.4-1,4.63-2.13,9.38C67,141.7,66.2,144.78,66,145.19a3,3,0,0,1-4,.77,3.17,3.17,0,0,1-1.2-2.26c0-.3.43-2.5,1-4.84s1.05-4.57,1.12-4.88c.12-.53-.19-.28-3.28,2.78-3.3,3.27-3.39,3.39-3.39,4.07s-3.77,18-4.3,19.79a2.89,2.89,0,0,1-4.57,1.55A3.58,3.58,0,0,1,46.22,160c0-.25.62-3.15,1.36-6.49s1.33-6.08,1.27-6.14-11.12,10.74-11.27,11.08c-.06.16-.28,2-.47,4.17-.4,4.32-.58,5-1.63,5.68a2.84,2.84,0,0,1-3.61-.4c-.87-.89-.93-1.39-.62-4.94a23.5,23.5,0,0,0,.18-3.24,17.25,17.25,0,0,0-2.68.12c-3.34.28-4,.28-4.85-.15a2.87,2.87,0,0,1,0-4.91c.55-.31,1.3-.43,5.25-.77,2.53-.22,4.72-.47,4.88-.53s10.31-10,10.25-10.09-1.08.18-2.35.43c-7.41,1.6-10.22,2.16-10.68,2.16a3,3,0,0,1-2.44-1.51,2.65,2.65,0,0,1,0-2.63c.62-1.3.52-1.26,12.53-3.83,11-2.38,11-2.38,14.21-5.52,1.73-1.73,3.15-3.19,3.12-3.19s-2.2.41-4.85,1-5.13,1-5.53,1a2.84,2.84,0,0,1-1.48-5.22,16.5,16.5,0,0,1,2.9-.83c8.65-1.85,15.38-3.21,15.9-3.21s.87-.25,3.22-2.47c1.42-1.36,2.59-2.5,2.56-2.53s-1.58.15-3.43.37c-4,.49-4.57.43-5.5-.41a2.76,2.76,0,0,1-.52-3.67c.65-1,1.27-1.2,6.85-1.88,10.66-1.27,8.74-.44,14.95-6.55,5.46-5.37,5.46-5.37,2.84-5.37-1.45,0-5-.06-7.94-.09-5.31-.13-5.31-.13-11.24,4.44-3.27,2.5-6.17,4.66-6.48,4.76a2.89,2.89,0,0,1-3.8-3.18c.16-.93.93-1.7,3.89-4,2.35-1.79,2.6-2,2.26-2.13a30.63,30.63,0,0,0-3.34-.12c-2.65,0-3,0-3.3.31s-2.78,1.82-5.74,3.64-6.3,3.92-7.45,4.6c-2.4,1.52-3.18,1.89-3.92,1.89a2.87,2.87,0,0,1-2.65-3.8,3.55,3.55,0,0,1,.65-1A53.08,53.08,0,0,1,42,101.86c2.26-1.38,4.11-2.62,4.11-2.68a33,33,0,0,0-4.6-.16c-4.6,0-4.6,0-5.1.5s-13.8,9-16.89,10.87A2.85,2.85,0,0,1,16,105.91c.28-.25,2.72-1.88,5.47-3.61s5.06-3.21,5.16-3.31a67,67,0,0,0-6.92-.15c-3.89,0-7.44-.06-7.91-.09-1-.1-.71-.28-4.44,2.84-3.55,2.93-4.2,3.24-5.75,2.5A2.86,2.86,0,0,1,0,101.59c0-1.24.49-1.86,3.12-4,1.33-1.11,2.44-2,2.44-2.1s-1-1-2.32-2.07A31.86,31.86,0,0,1,.59,91,2.89,2.89,0,0,1,.8,87.54a2.85,2.85,0,0,1,3.31-.77C4.54,87,8.43,90.1,11,92.35c.62.56.62.56,7.94.65,4,.06,7.32.1,7.35.06s-2.38-1.6-5.31-3.48-5.59-3.68-5.9-4a2.82,2.82,0,0,1,1.67-4.75,3.33,3.33,0,0,1,1.26.09q.64.22,16.06,10.22c3.12,2,3.12,2,7.69,2.1q4.57.09,4.38-.09c-.09-.1-2.07-1.42-4.41-2.94a35.85,35.85,0,0,1-4.6-3.3,2.88,2.88,0,0,1,1.05-4.2,3.65,3.65,0,0,1,2.5-.06c.8.4,14.94,9.66,15.62,10.25s.71.56,4.11.53,3.39,0,.65-2.26a24.52,24.52,0,0,1-3.15-2.78A2.83,2.83,0,0,1,61,84.17c.78.22,1.05.4,7.29,5.31,2.63,2.07,4.91,3.83,5.1,3.92s2.62.19,7.81.16c7.44,0,7.44,0,1.94-5.65s-5.49-5.59-6.73-5.78l-7.32-.95c-6.91-.9-7.28-1-8-2.29a2.85,2.85,0,0,1,2.47-4.23c.37,0,2.13.19,3.92.43s3.27.41,3.3.37-1-1.11-2.19-2.43c-2.1-2.2-2.32-2.38-3-2.47-.41-.07-4.64-1-9.39-2.14-5.78-1.35-8.86-2.13-9.26-2.37a3,3,0,0,1-.78-4,3.19,3.19,0,0,1,2.26-1.2c.31,0,2.5.43,4.85,1s4.57,1,4.87,1.11c.53.09.28-.19-2.77-3.27-3.28-3.31-3.4-3.4-4.08-3.4s-18-3.77-19.76-4.29A2.9,2.9,0,0,1,30,47.4a3.55,3.55,0,0,1,2.17-1.08c.24,0,3.14.61,6.48,1.35s6.08,1.33,6.14,1.27S34.09,37.82,33.75,37.67c-.16-.06-2-.28-4.17-.46-4.32-.4-5-.59-5.68-1.64A2.85,2.85,0,0,1,24.3,32c.9-.87,1.39-.93,4.94-.62a24.5,24.5,0,0,0,3.24.19,17.34,17.34,0,0,0-.12-2.69c-.28-3.34-.28-4,.15-4.85a2.87,2.87,0,0,1,4.91,0c.31.56.44,1.3.78,5.25.21,2.53.46,4.73.52,4.88.12.31,10,10.31,10.1,10.25s-.19-1.08-.43-2.35c-1.61-7.41-2.17-10.22-2.17-10.68a3,3,0,0,1,1.52-2.44,2.66,2.66,0,0,1,2.62,0c1.3.62,1.27.53,3.83,12.54,2.38,11,2.38,11,5.53,14.2,1.73,1.73,3.18,3.15,3.18,3.12s-.4-2.19-1-4.85-1-5.12-1-5.53a2.84,2.84,0,0,1,5.22-1.48,15.64,15.64,0,0,1,.83,2.9c1.86,8.65,3.21,15.38,3.21,15.91s.25.86,2.47,3.21c1.36,1.42,2.51,2.59,2.54,2.56S75,69.88,74.82,68c-.5-4-.44-4.57.37-5.49A2.8,2.8,0,0,1,78.86,62c1,.65,1.21,1.27,1.88,6.86,1.27,10.65.44,8.74,6.55,14.94,5.37,5.47,5.37,5.47,5.37,2.84,0-1.45.07-5,.13-7.93.12-5.31.12-5.31-4.45-11.24-2.5-3.28-4.66-6.18-4.75-6.49a2.88,2.88,0,0,1,3.18-3.79c.92.15,1.72.92,4,3.89,1.79,2.34,2,2.59,2.13,2.25A30.53,30.53,0,0,0,93,60c0-2.66,0-3-.31-3.31S90.87,53.91,89.05,51s-3.92-6.3-4.6-7.44c-1.51-2.41-1.88-3.18-1.88-3.92a2.86,2.86,0,0,1,3.79-2.66,3.55,3.55,0,0,1,1,.65,52.23,52.23,0,0,1,2.94,4.48c1.39,2.25,2.62,4.1,2.68,4.1a31.27,31.27,0,0,0,.16-4.6c0-4.6,0-4.6-.5-5.09s-9-13.87-10.86-17,1.94-6.2,4.47-3.52c.25.25,1.89,2.72,3.62,5.47s3.21,5.06,3.3,5.13a67,67,0,0,0,.15-6.92c0-3.89.07-7.44.1-7.91.09-1,.27-.71-2.84-4.44-2.94-3.55-3.25-4.2-2.51-5.75A2.89,2.89,0,0,1,90.63,0c1.23,0,1.85.49,4,3.12a28,28,0,0,0,2.13,2.44,29.41,29.41,0,0,0,2.07-2.35A28.1,28.1,0,0,1,101.25.56a2.87,2.87,0,0,1,4.23,3.52c-.19.46-3.34,4.32-5.59,6.91-.56.62-.56.62-.65,7.94-.06,4-.09,7.32-.06,7.35s1.6-2.38,3.49-5.31,3.67-5.59,4-5.9a2.82,2.82,0,0,1,4.76,1.67,3.12,3.12,0,0,1-.1,1.26q-.23.64-10.22,16.06c-2,3.12-2,3.12-2.1,7.69-.06,3,0,4.5.1,4.38s1.42-2.07,2.93-4.38a37,37,0,0,1,3.3-4.6,2.88,2.88,0,0,1,4.2,1.05,3.65,3.65,0,0,1,.06,2.5c-.4.8-9.66,14.94-10.25,15.62s-.55.71-.52,4.11,0,3.39,2.25.65a28.25,28.25,0,0,1,2.78-3.15,3,3,0,0,1,2.72-.13A2.94,2.94,0,0,1,108.07,61c-.21.78-.4,1.05-5.31,7.29-2.07,2.63-3.83,4.91-3.92,5.1a62.75,62.75,0,0,0-.16,7.81c0,7.47,0,7.47,5.65,1.94s5.59-5.49,5.78-6.73c.09-.68.52-4,1-7.32.89-6.91,1-7.28,2.28-8a2.85,2.85,0,0,1,4.23,2.47c0,.37-.18,2.13-.43,3.92s-.4,3.27-.37,3.3,1.11-1,2.44-2.19c2.19-2.1,2.38-2.32,2.47-3,.06-.41,1-4.64,2.13-9.39A94,94,0,0,1,126.2,47a3,3,0,0,1,4-.78,3.19,3.19,0,0,1,1.2,2.26c0,.31-.43,2.5-1,4.85s-1.05,4.57-1.12,4.87c-.12.53.19.28,3.28-2.77,3.3-3.28,3.39-3.4,3.39-4.08s3.77-18,4.3-19.76A2.89,2.89,0,0,1,144.85,30a3.61,3.61,0,0,1,1.08,2.17c0,.24-.62,3.14-1.36,6.48s-1.33,6.08-1.27,6.14,11.12-10.74,11.27-11.08c.06-.16.28-2,.47-4.14.4-4.32.58-5,1.63-5.68a2.84,2.84,0,0,1,3.61.4c.87.9.93,1.39.62,4.94a25.7,25.7,0,0,0-.18,3.24,15.92,15.92,0,0,0,2.68-.12c3.34-.28,4-.28,4.82.15a2.87,2.87,0,0,1,0,4.91c-.56.31-1.3.44-5.25.78-2.53.21-4.72.46-4.88.52-.31.12-10.31,10-10.25,10.1s1.08-.19,2.35-.43c7.41-1.61,10.22-2.17,10.71-2.17a2.93,2.93,0,0,1,2.44,1.52,2.61,2.61,0,0,1,0,2.62c-.61,1.3-.52,1.27-12.53,3.83-11,2.38-11,2.38-14.21,5.53-1.73,1.73-3.15,3.18-3.12,3.18s2.2-.4,4.85-1,5.13-1,5.53-1a2.84,2.84,0,0,1,1.48,5.22,14.65,14.65,0,0,1-2.9.83c-8.65,1.86-15.38,3.22-15.9,3.22s-.87.24-3.21,2.47c-1.42,1.35-2.6,2.5-2.57,2.53s1.58-.16,3.43-.37c3.95-.5,4.57-.44,5.5.4a2.77,2.77,0,0,1,.52,3.67c-.65,1-1.26,1.21-6.85,1.89-10.66,1.26-8.74.43-15,6.54-5.46,5.38-5.46,5.38-2.84,5.38,1.45,0,5,.06,7.94.12,5.31.12,5.31.12,11.24-4.45,3.27-2.5,6.17-4.63,6.48-4.75a2.89,2.89,0,0,1,3.8,3.18c-.16.92-.93,1.7-3.89,4-2.35,1.79-2.6,2-2.26,2.13a30.63,30.63,0,0,0,3.34.12c2.65,0,3,0,3.3-.3.19-.19,2.78-1.83,5.75-3.65s6.29-3.92,7.44-4.6c2.41-1.51,3.18-1.88,3.92-1.88a2.85,2.85,0,0,1,2.65,3.8,3.91,3.91,0,0,1-.64,1c-.19.21-2.23,1.54-4.48,2.93s-4.11,2.62-4.11,2.69a34.06,34.06,0,0,0,4.6.15c4.6,0,4.6,0,5.1-.49s13.8-9.05,16.89-10.87,6.2,1.94,3.52,4.47c-.28.25-2.72,1.89-5.47,3.62s-5.06,3.21-5.15,3.3a64.34,64.34,0,0,0,6.91.16c3.89,0,7.44.06,7.91.09,1,.09.71.28,4.44-2.84,3.55-2.94,4.2-3.24,5.75-2.5a2.86,2.86,0,0,1,1.57,2.5c0,1.23-.49,1.85-3.12,4-1.33,1.11-2.44,2-2.44,2.1s1,1,2.32,2.07a28.1,28.1,0,0,1,2.65,2.41,2.87,2.87,0,0,1-3.52,4.23c-.43-.19-4.32-3.34-6.91-5.59-.62-.56-.62-.56-7.94-.65-4-.06-7.32-.09-7.35-.06s2.38,1.6,5.31,3.49,5.59,3.67,5.9,4a2.82,2.82,0,0,1-1.67,4.76,3.77,3.77,0,0,1-1.26-.1q-.65-.23-16.06-10.22c-3.12-2-3.12-2-7.69-2.1-3.05-.06-4.5,0-4.38.1s2.07,1.42,4.41,2.93a37.25,37.25,0,0,1,4.6,3.3,2.89,2.89,0,0,1-1,4.2,3.74,3.74,0,0,1-2.51.07c-.8-.41-14.94-9.67-15.62-10.26s-.71-.55-4.11-.52-3.39,0-.65,2.25a28.25,28.25,0,0,1,3.15,2.78,3,3,0,0,1,.13,2.72,2.94,2.94,0,0,1-3.21,1.51c-.81-.21-1-.37-7.29-5.31-2.63-2.07-4.91-3.83-5.1-3.92a61.85,61.85,0,0,0-7.81-.15c-7.44,0-7.44,0-1.94,5.65s5.49,5.58,6.73,5.77l7.32,1c6.91.89,7.28,1,8,2.28a2.85,2.85,0,0,1-2.47,4.23c-.37,0-2.13-.18-3.92-.43s-3.27-.4-3.3-.37,1,1.11,2.19,2.44c2.1,2.19,2.32,2.38,3,2.47.4.06,4.63,1,9.38,2.13,5.78,1.36,8.86,2.13,9.27,2.38a3,3,0,0,1,.77,4,3.2,3.2,0,0,1-2.26,1.21c-.31,0-2.5-.44-4.84-1s-4.57-1.05-4.88-1.11c-.53-.1-.28.18,2.78,3.27,3.27,3.3,3.39,3.4,4.07,3.4s18,3.79,19.76,4.29a2.89,2.89,0,0,1,1.55,4.57A3.58,3.58,0,0,1,160,146c-.25,0-3.15-.62-6.49-1.36s-6.08-1.33-6.14-1.27,10.74,11.12,11.08,11.27c.16.07,2,.28,4.17.47,4.32.4,5,.58,5.65,1.63a2.86,2.86,0,0,1-.4,3.62c-.9.86-1.39.92-4.94.61a25.5,25.5,0,0,0-3.24-.18,15.92,15.92,0,0,0,.12,2.68c.28,3.34.28,4-.15,4.82a2.87,2.87,0,0,1-4.91,0c-.31-.55-.44-1.3-.78-5.25-.21-2.53-.46-4.72-.52-4.88-.12-.31-10-10.31-10.1-10.25s.19,1.08.43,2.35c1.61,7.41,2.17,10.22,2.17,10.71a3,3,0,0,1-1.52,2.44,2.61,2.61,0,0,1-2.62,0c-1.3-.61-1.27-.52-3.83-12.53-2.38-11-2.38-11-5.5-14.21-1.73-1.73-3.18-3.15-3.18-3.11s.4,2.19,1,4.84,1,5.13,1,5.53A2.84,2.84,0,0,1,126,145.4a16.22,16.22,0,0,1-.83-2.9c-1.86-8.65-3.21-15.38-3.21-15.9s-.25-.87-2.47-3.21c-1.36-1.42-2.51-2.6-2.54-2.57s.16,1.58.37,3.43c.5,3.95.44,4.57-.4,5.5a2.77,2.77,0,0,1-3.67.52c-1.05-.65-1.21-1.26-1.88-6.85-1.27-10.66-.44-8.74-6.55-15-5.37-5.46-5.37-5.46-5.37-2.84,0,1.45-.07,5-.13,7.94-.12,5.31-.12,5.31,4.45,11.24,2.5,3.27,4.66,6.17,4.75,6.48a2.88,2.88,0,0,1-3.18,3.8c-.92-.16-1.73-.93-4-3.89-1.79-2.35-2-2.63-2.13-2.26a30.63,30.63,0,0,0-.12,3.34c0,2.65,0,3,.31,3.3.18.19,1.82,2.78,3.64,5.75s3.92,6.33,4.6,7.44c1.51,2.41,1.88,3.18,1.88,3.92a2.85,2.85,0,0,1-3.79,2.65,3.62,3.62,0,0,1-1.05-.64c-.22-.22-1.55-2.23-2.94-4.48s-2.62-4.11-2.68-4.11a31.27,31.27,0,0,0-.16,4.6c0,4.6,0,4.6.5,5.1s9,13.8,10.86,16.89-1.94,6.2-4.47,3.52c-.25-.28-1.89-2.72-3.62-5.47s-3.21-5.06-3.3-5.15a66.53,66.53,0,0,0-.15,6.91c0,3.89-.07,7.44-.1,7.91-.09,1-.27.71,2.84,4.44,2.94,3.55,3.25,4.23,2.51,5.75a2.89,2.89,0,0,1-2.51,1.57c-1.23,0-1.85-.49-4-3.12a29.89,29.89,0,0,0-2.13-2.44A29.41,29.41,0,0,0,93.28,189a21.75,21.75,0,0,1-2.5,2.69A3,3,0,0,1,88.4,191.93Z"/></g></g></g></svg>