<svg xmlns="http://www.w3.org/2000/svg" viewBox="0 0 180.72 180.69"><defs><style>.cls-1{fill:#FFFFFF;}</style></defs><g id="katman_2" data-name="katman 2"><g id="katman_1-2" data-name="katman 1"><path class="cls-1" d="M174.45,95l-5-4.3c.61-.64,2.75-2.43,4.91-4.21,1.9-1.58,5.55-4.65,5.84-5.08a4.08,4.08,0,0,0,.21-3.42,3.4,3.4,0,0,0-3.07-1.87,2.92,2.92,0,0,0-1.34.29c-.56.23-4,3-7,5.52-6,5-6,5-17,5h-.71c-4.41,0-7.77,0-9.38-.06l1-.85c1-.84,3.59-3,5.75-4.82s5.64-4.76,7.75-6.51c.14-.12,3.83-3.25,4.12-3.72a3.48,3.48,0,0,0,.06-3.53,3.39,3.39,0,0,0-2.95-1.73A4,4,0,0,0,156,66c-.62.33-3.28,2.52-18.85,15.7-5.93,5-5.93,5-22.59,5h-.85c-7.36,0-12.8,0-14.93-.08.7-.73,2-2,3.42-3.39,3.65-3.54,3.94-3.83,5.64-3.83a8.16,8.16,0,0,1,.82,0c1.49,0,6.34.06,10.84.06,8.3,0,8.3,0,9.12-.47a3.32,3.32,0,0,0,1.69-3.45,3.55,3.55,0,0,0-2.72-2.92c-.55-.12-5.35-.18-8.27-.18s-5.29,0-5.67-.32a13.1,13.1,0,0,1,2.49-2.78c2.16-2.16,4.38-4.29,4.91-4.79.84-.79.87-.82,11.51-2.31l2.22-.32c19.06-2.69,19.06-2.69,19.73-3.1l.06,0a3.77,3.77,0,0,0,1.57-3,3.5,3.5,0,0,0-3.36-3.36c-.58,0-17.79,2.37-22.56,3.07,1.32-1.43,4.59-4.73,10-10,3.85-3.74,3.85-3.74,11.8-4.33,3.31-.23,8.36-.67,8.83-.82a4.09,4.09,0,0,0,2.22-2.63,3.59,3.59,0,0,0-2.66-4,3.22,3.22,0,0,0-.38,0c-1,0-3.94.18-7.16.41-2.8.2-5.38.38-6.4.41,0-.82.21-2.81.47-5.64.88-8.94.9-9.29-.76-10.55a3.74,3.74,0,0,0-4,0l-.12.09c-1.23.93-1.23.93-2.19,11.39L139.79,31c-.53,5.7-.53,5.7-8.36,13.42-3.33,3.3-5.87,5.78-7.13,7,.15-1.93.56-6.75,1.49-17.5.18-2.11.5-6.26.41-6.72a3.51,3.51,0,0,0-4.82-2.46,3.61,3.61,0,0,0-2,2.87c-.09.58-.73,7.56-1.4,15.54S116.73,58,116.67,58.48c-.08.67-.41,1-11.25,11.77-6.08,6-10.6,10.52-11.63,11.52-.06-.73-.06-2.28-.09-4.59,0-5.47,0-5.47,5.56-11.05,3.18-3.15,6.48-6.4,7.39-7.27,2.22-2.14,2.89-3,2.89-4.48a2.61,2.61,0,0,0-.58-1.92A3.19,3.19,0,0,0,106.62,51c-.23,0-.41-.05-.61-.05-1.32,0-2.25.93-7.43,6.07-2.16,2.17-3.88,3.89-4.41,3.89-.35-.23-.35-2.48-.35-4.82,0-6.69,0-6.69,9.56-19.38.09-.11,9.7-12.91,9.93-13.53a4,4,0,0,0-.43-3.27,4,4,0,0,0-2.78-1.43,4.17,4.17,0,0,0-1.52.44s-.09,0-.12.06c-.79.38-.79.38-7.86,9.81l-1.2,1.58c-2.51,3.36-4.56,6-5.58,7.34,0-1.2,0-3.28.06-5.44.06-3.71.12-8.44.12-10.55,0-3.62,0-3.62,5.17-9.61,2.13-2.49,5.43-6.37,5.7-7a3.08,3.08,0,0,0,0-2.86,3,3,0,0,0-3.1-1.84,3.25,3.25,0,0,0-1.9.41c-.41.26-3.16,3.39-4.91,5.43l-4.29,5c-.65-.61-2.43-2.75-4.21-4.91C84.88,4.44,81.81.79,81.37.5A3.52,3.52,0,0,0,79.44,0,4,4,0,0,0,78,.29a3.42,3.42,0,0,0-1.6,4.41c.23.53,3,4,5.52,7,5,6,5,6,5,17,0,4.76,0,8.38-.06,10.08-.24-.27-.53-.62-.85-1-.82-1-3-3.56-4.82-5.75l-6.52-7.72c-.14-.14-3.24-3.83-3.71-4.12a3.57,3.57,0,0,0-1.78-.5,3.45,3.45,0,0,0-3.48,3.39A4.58,4.58,0,0,0,66,24.72c.32.62,2.51,3.28,15.69,18.85,5,5.93,5,5.93,5,22.59,0,7.83,0,13.56-.09,15.75-.73-.7-2-2-3.39-3.42-3.88-4-3.88-4-3.83-6.46,0-1.46.06-6.34.06-10.84,0-8.3,0-8.3-.46-9.11a3.36,3.36,0,0,0-2.93-1.73,3.53,3.53,0,0,0-3.42,2.78c-.11.55-.17,5.35-.17,8.27s0,5.29-.32,5.67a13.1,13.1,0,0,1-2.78-2.49c-2.16-2.16-4.29-4.38-4.82-4.91-.79-.84-.82-.87-2.31-11.51l-.32-2.25c-2.69-19-2.69-19-3.1-19.7l0-.06a3.73,3.73,0,0,0-3-1.57,3.5,3.5,0,0,0-3.36,3.36c0,.55,2.37,17.79,3.07,22.56-1.43-1.32-4.73-4.59-10-10-3.74-3.85-3.74-3.85-4.32-11.8-.26-3.31-.67-8.36-.82-8.83a4.09,4.09,0,0,0-2.63-2.22,3,3,0,0,0-.52,0,3.59,3.59,0,0,0-3.48,2.69c-.09.5.17,4.79.38,7.54.23,3,.38,5.46.41,6.4-.94-.06-3.19-.23-5.64-.47-4-.38-6.08-.58-7.48-.58-1.87,0-2.37.38-3.1,1.34a2.72,2.72,0,0,0-.59,2,2.7,2.7,0,0,0,.59,2l.09.12c.93,1.23.93,1.23,11.39,2.19L30.9,41c5.7.53,5.7.53,13.42,8.33,3.3,3.33,5.78,5.87,7,7.13-1.9-.15-6.69-.56-17.5-1.49-2.84-.23-5.53-.44-6.37-.44a.85.85,0,0,0-.35,0,3.5,3.5,0,0,0-2.37,1.78,3.56,3.56,0,0,0-.12,3,3.64,3.64,0,0,0,2.87,2c.58.09,7.56.73,15.54,1.4S57.88,64,58.32,64.06c.67.08,1,.41,12,11.42,5.78,5.82,10.11,10.17,11.36,11.46-.78,0-2.27.06-4.58.06H75.79c-4.24,0-4.56-.32-9.76-5.58-3.16-3.19-6.4-6.49-7.28-7.4-2.13-2.22-3-2.89-4.47-2.89a2.61,2.61,0,0,0-1.9.58,3.22,3.22,0,0,0-1.46,2.34c-.23,1.73.12,2.08,6,8,2.05,2,4,4,3.89,4.41-.24.35-2.49.35-4.82.35-6.67,0-6.67,0-19.38-9.55-.11-.09-12.91-9.71-13.53-9.94A3,3,0,0,0,22,67.18a4,4,0,0,0-2.16.59,3.91,3.91,0,0,0-1.43,2.75A4.3,4.3,0,0,0,18.86,72s0,.09.06.12c.38.79.38.79,9.79,7.86l1.61,1.2c3.36,2.51,6,4.56,7.33,5.58h-1c-1,0-2.4,0-4.44-.06-3.74,0-8.48-.11-10.55-.11-3.62,0-3.62,0-9.62-5.18C9.6,79.31,5.71,76,5.13,75.75A3.33,3.33,0,0,0,3.7,75.4a3.3,3.3,0,0,0-1.43.35A3,3,0,0,0,.42,78.84a3.21,3.21,0,0,0,.41,1.9c.27.41,3.39,3.16,5.44,4.91l5,4.3c-.62.64-2.75,2.42-4.91,4.21C4.43,95.73.78,98.8.48,99.24a4.12,4.12,0,0,0-.2,3.42,3.39,3.39,0,0,0,3.07,1.87,3.08,3.08,0,0,0,1.34-.29c.53-.23,4-3,7-5.52,6-5,6-5,17-5h.73c4.39,0,7.78,0,9.35.06l-1,.84c-1,.82-3.59,3-5.76,4.83s-5.64,4.76-7.74,6.51c-.15.15-3.83,3.25-4.12,3.71a3.5,3.5,0,0,0-.06,3.54,3.38,3.38,0,0,0,3,1.75,3.82,3.82,0,0,0,1.58-.35c.61-.32,3.27-2.51,18.85-15.69,5.93-5,5.93-5,22.59-5h.82c7.39,0,12.83,0,14.93.09-.7.73-2,2-3.42,3.39-3.65,3.54-3.94,3.83-5.64,3.83a8.06,8.06,0,0,1-.82,0c-1.46,0-6.34-.06-10.84-.06-8.3,0-8.3,0-9.12.47A3.32,3.32,0,0,0,50.34,105,3.54,3.54,0,0,0,53.06,108c.52.12,5.34.18,8.27.18s5.28,0,5.66.32a12.45,12.45,0,0,1-2.48,2.77c-2.13,2.11-4.38,4.3-4.91,4.83-.85.78-.88.81-11.51,2.3l-2.25.33c-19.06,2.68-19.06,2.68-19.7,3.09l-.06,0a3.8,3.8,0,0,0-1.58,3,3.5,3.5,0,0,0,3.36,3.36c.59,0,17.8-2.36,22.57-3.07-1.32,1.47-4.59,4.74-10,10-3.86,3.74-3.86,3.74-11.81,4.32-3.3.24-8.35.68-8.82.82a4,4,0,0,0-2.22,2.63,3.61,3.61,0,0,0,2.66,4,3,3,0,0,0,.38,0c1,0,3.94-.18,7.16-.41,2.8-.21,5.37-.38,6.4-.41-.06.82-.21,2.8-.47,5.64-.88,8.94-.91,9.29.76,10.55a2.76,2.76,0,0,0,2,.58,2.74,2.74,0,0,0,2-.58l.12-.09c1.23-.94,1.23-.94,2.19-11.4l.09-1.08c.52-5.7.52-5.7,8.36-13.41,3.33-3.3,5.87-5.79,7.13-7-.15,1.93-.56,6.75-1.49,17.51-.18,2.1-.5,6.25-.41,6.72a3.48,3.48,0,0,0,3.45,2.78,3.3,3.3,0,0,0,1.4-.3,3.61,3.61,0,0,0,2-2.86c.11-.64.78-8.42,1.4-15.55.67-7.86,1.28-14.87,1.31-15.31.09-.67.41-1,11.43-12,5.81-5.79,10.17-10.11,11.45-11.37,0,.79.06,2.28.06,4.59.06,5.49.06,5.49-5.55,11-3.16,3.12-6.49,6.4-7.39,7.27-2.22,2.14-2.9,3-2.9,4.47a2.62,2.62,0,0,0,.59,1.93,3.14,3.14,0,0,0,2.34,1.46,4.65,4.65,0,0,0,.61.06c1.32,0,2.25-.93,7.42-6.08,2.17-2.16,3.89-3.88,4.42-3.88.35.23.35,2.48.35,4.82,0,6.66,0,6.66-9.56,19.37-.09.12-9.7,12.92-9.94,13.53a4.05,4.05,0,0,0,.44,3.28,3.94,3.94,0,0,0,2.78,1.43,4.38,4.38,0,0,0,1.52-.44s.09,0,.12-.06c.78-.38.78-.38,7.86-9.79l1.19-1.61c2.52-3.36,4.56-6,5.59-7.33,0,1.43,0,4-.06,5.43-.06,3.75-.12,8.48-.12,10.55,0,3.63,0,3.63-5.17,9.62-2.13,2.48-5.44,6.37-5.7,6.95a3.1,3.1,0,0,0,0,2.87,3,3,0,0,0,3.1,1.84,3,3,0,0,0,2-.47c.43-.32,3.27-3.56,5.08-5.64,2.43-2.8,3.74-4.35,4.18-4.67.26.29,2.34,2.8,4.56,5.46,3.68,4.47,4.53,5.26,4.91,5.44a3.59,3.59,0,0,0,1.55.35,3.36,3.36,0,0,0,2.83-1.46,3.25,3.25,0,0,0,.32-3.28c-.23-.55-3-4-5.52-7-5-6-5-6-5-17,0-4.76,0-8.41.06-10.08l.85,1c.82,1,3,3.6,4.82,5.76s4.76,5.67,6.52,7.75c.14.14,3.24,3.82,3.71,4.12a3.56,3.56,0,0,0,1.78.49,3.45,3.45,0,0,0,3.48-3.39,4,4,0,0,0-.35-1.58c-.32-.61-2.52-3.27-15.7-18.84-5-5.94-5-5.94-5-22.59,0-7.84,0-13.56.09-15.76.73.71,2,2,3.39,3.42,3.88,4,3.88,4,3.82,6.46,0,1.46,0,6.34,0,10.84,0,8.3,0,8.3.46,9.12a3.38,3.38,0,0,0,2.93,1.73,3.52,3.52,0,0,0,3.41-2.78c.12-.53.18-5.35.18-8.27s0-5.29.32-5.67a13.25,13.25,0,0,1,2.78,2.48c2.16,2.17,4.32,4.39,4.82,4.91.79.85.82.88,2.31,11.52l.32,2.25c2.69,19.05,2.69,19.05,3.1,19.69l0,.06a3.71,3.71,0,0,0,3,1.58,3.51,3.51,0,0,0,3.36-3.36c0-.58-2.37-17.8-3.07-22.56,1.43,1.31,4.73,4.59,10,10,3.74,3.86,3.74,3.86,4.33,11.81.26,3.3.67,8.36.82,8.83a4,4,0,0,0,2.63,2.22,3,3,0,0,0,.52,0,3.59,3.59,0,0,0,3.48-2.69c.09-.5-.17-4.8-.38-7.54-.23-3-.38-5.47-.41-6.4.94.06,3.19.23,5.64.47,4,.38,6.08.58,7.48.58,1.87,0,2.37-.38,3.1-1.34a2.62,2.62,0,0,0,.59-2,2.72,2.72,0,0,0-.59-2l-.09-.11c-.93-1.23-.93-1.23-11.39-2.2l-1.09-.08c-5.69-.53-5.69-.53-13.44-8.33-3.3-3.33-5.78-5.88-7-7.13,1.9.14,6.69.55,17.5,1.49,2.84.23,5.53.44,6.37.44a.85.85,0,0,0,.35,0,3.51,3.51,0,0,0,2.49-4.82,3.57,3.57,0,0,0-2.87-2c-.64-.12-8.41-.79-15.54-1.4-7.83-.68-14.85-1.26-15.32-1.32-.67-.09-1-.41-12-11.43C104.58,99.36,100.25,95,99,93.69c.79,0,2.28-.06,4.59-.06h1.29c4.24,0,4.56.32,9.76,5.58,3.15,3.19,6.43,6.49,7.27,7.4,2.14,2.22,3,2.89,4.48,2.89a2.57,2.57,0,0,0,1.9-.59,3.2,3.2,0,0,0,1.46-2.33c.23-1.73-.12-2.08-6-8-2-2-4-4-3.89-4.44.23-.35,2.48-.35,4.82-.35,6.66,0,6.66,0,19.38,9.55.11.09,12.91,9.71,13.53,9.94a3,3,0,0,0,1.08.17,4,4,0,0,0,2.16-.58,3.94,3.94,0,0,0,1.43-2.78,4.17,4.17,0,0,0-.44-1.52s0-.08,0-.11c-.38-.79-.38-.79-9.79-7.86l-1.61-1.2c-3.36-2.52-6.05-4.56-7.34-5.58h1c1,0,2.39,0,4.47,0,3.71.06,8.45.12,10.55.12,3.62,0,3.62,0,9.61,5.17,2.49,2.14,6.37,5.44,7,5.7a3.1,3.1,0,0,0,2.86,0,3,3,0,0,0,1.84-3.1,3.12,3.12,0,0,0-.41-1.89C179.62,99.5,176.49,96.73,174.45,95Z"/></g></g></svg>